<svg width="20" height="20" viewBox="0 0 20 20" fill="none" xmlns="http://www.w3.org/2000/svg">
           <ellipse cx="10.0037" cy="10" rx="10.0037" ry="10" fill="#665CAC"></ellipse>
           <g clip-path="url(#clip0_707:4223)">
           <path d="M15.9213 11.0063C16.3011 7.8102 15.7388 5.7924 14.7245 4.87975L14.725 4.87922C13.0879 3.32066 7.55908 3.08998 5.60049 4.94922C4.72092 5.85869 4.41111 7.19346 4.37716 8.84588C4.34321 10.4988 4.30289 13.5953 7.18933 14.4353H7.19198L7.18933 15.7181C7.18933 15.7181 7.1697 16.2378 7.50179 16.3422C7.88163 16.4653 8.05351 16.224 9.23492 14.8134C11.2105 14.9847 12.7277 14.5922 12.9001 14.535C13.2991 14.4013 15.5563 14.1028 15.9213 11.0063ZM9.42962 13.9108C9.42962 13.9108 8.17923 15.4694 7.79038 15.874C7.66306 16.0055 7.52354 15.9933 7.52566 15.7324C7.52566 15.5611 7.53521 13.6027 7.53521 13.6027C5.08803 12.9016 5.23232 10.265 5.25885 8.88565C5.28537 7.5058 5.53789 6.37573 6.28271 5.61475C8.00099 4.00422 12.8481 4.36429 14.0831 5.52459C15.5929 6.86255 15.0555 10.6425 15.0587 10.7714C14.7484 13.3561 12.9192 13.52 12.5829 13.6319C12.4391 13.6796 11.1049 14.0227 9.42962 13.9108Z" fill="white"></path>
           <path d="M10.1214 5.92285C9.9172 5.92285 9.9172 6.24136 10.1214 6.24401C11.706 6.25622 13.0111 7.36144 13.0254 9.38874C13.0254 9.60267 13.3384 9.60002 13.3357 9.38609H13.3352C13.3182 7.20166 11.8933 5.93506 10.1214 5.92285Z" fill="white"></path>
           <path d="M12.2058 9.0521C12.201 9.26337 12.5135 9.27346 12.5161 9.05953C12.5421 7.85504 11.7999 6.86289 10.4052 6.75831C10.201 6.74345 10.1798 7.06461 10.3835 7.07947C11.593 7.17131 12.2302 7.99731 12.2058 9.0521Z" fill="white"></path>
           <path d="M11.8715 10.4178C11.6094 10.2662 11.3426 10.3606 11.2322 10.5096L11.0015 10.8081C10.8842 10.9598 10.6651 10.9397 10.6651 10.9397C9.06622 10.517 8.63864 8.84444 8.63864 8.84444C8.63864 8.84444 8.61901 8.618 8.76543 8.49656L9.05402 8.25792C9.19831 8.14338 9.28956 7.86762 9.14261 7.59663C8.75004 6.88762 8.48639 6.64315 8.35217 6.45542C8.21106 6.27883 7.99886 6.23906 7.77817 6.35838H7.7734C7.31452 6.62671 6.81214 7.12891 6.97288 7.64595C7.24715 8.1911 7.75112 9.9289 9.35746 11.2419C10.1124 11.8629 11.307 12.4993 11.8142 12.6462L11.819 12.6536C12.3187 12.8201 12.8046 12.2983 13.064 11.8258V11.8221C13.1792 11.5935 13.141 11.3772 12.9728 11.2356C12.6747 10.945 12.2248 10.6241 11.8715 10.4178Z" fill="white"></path>
           <path d="M10.6238 7.93857C11.1336 7.96828 11.3808 8.23467 11.4074 8.78176C11.4169 8.99561 11.7273 8.98075 11.7177 8.7669C11.6838 8.05265 11.3113 7.65467 10.6408 7.61753C10.4365 7.60532 10.4174 7.92636 10.6238 7.93857Z" fill="white"></path>
           </g>
           <defs>
           <clipPath id="clip0_707:4223">
           <rect width="12.7319" height="12.7273" fill="white" transform="translate(3.6377 3.64062)"></rect>
           </clipPath>
           </defs>
           </svg>