<svg width="20" height="20" viewBox="0 0 20 20" fill="none" xmlns="http://www.w3.org/2000/svg">
           <g clip-path="url(#clip0_707:4190)">
           <path d="M9.99464 0.00586418C4.47506 0.00703536 0.00149127 4.48251 0.00266246 10.0021C0.00305285 11.9133 0.551517 13.7844 1.58294 15.3934L0.0280381 19.4277C-0.0547645 19.6423 0.0520473 19.8834 0.266608 19.9662C0.314587 19.9847 0.365534 19.9942 0.416949 19.9941C0.464655 19.9943 0.51201 19.9862 0.556866 19.9699L4.72108 18.4833C9.40628 21.4013 15.5699 19.9687 18.4879 15.2834C21.4058 10.5982 19.9732 4.43461 15.288 1.51665C13.6998 0.52747 11.8658 0.00402933 9.99464 0.00586418Z" fill="#4CAF50"></path>
           <path d="M14.7593 11.7071C14.7593 11.7071 13.739 11.2074 13.1002 10.8743C12.3773 10.502 11.5278 11.1991 11.1281 11.5956C10.5059 11.3566 9.93766 10.9958 9.45657 10.5345C8.99517 10.0535 8.63444 9.48524 8.39552 8.86299C8.79197 8.46241 9.48738 7.61373 9.11677 6.89084C8.78779 6.25121 8.28395 5.23182 8.28395 5.231C8.21325 5.09069 8.06962 5.00211 7.91249 5.00195H7.07966C5.86678 5.21144 4.98492 6.26972 4.99757 7.50047C4.99757 8.80802 6.56247 11.3199 7.6177 12.3759C8.67294 13.4319 11.1848 14.996 12.4931 14.996C13.7239 15.0087 14.7822 14.1268 14.9917 12.914V12.0811C14.9918 11.9223 14.9017 11.7773 14.7593 11.7071Z" fill="#FAFAFA"></path>
           </g>
           <defs>
           <clipPath id="clip0_707:4190">
           <rect width="20" height="20" fill="white"></rect>
           </clipPath>
           </defs>
           </svg>