<svg width="189" height="115" viewBox="0 0 189 115" fill="none" xmlns="http://www.w3.org/2000/svg">
<g clip-path="url(#clip0)">
<path d="M125.671 26.4905C125.957 26.4905 126.477 26.049 125.957 26.049C125.671 26.075 125.177 26.4905 125.671 26.4905Z" fill="white"/>
<path d="M72.1683 46.8518C71.2844 43.6834 80.1234 40.7227 86.5188 40.8006C92.8881 40.8785 96.5797 43.995 102.871 44.3067C97.6716 44.8521 92.1082 43.5535 86.5968 45.1377C82.6972 46.2545 81.5013 47.6829 78.3296 48.54C75.6519 49.2671 72.8182 49.6827 72.0903 46.8259L72.1683 46.8518ZM97.0217 45.6052C97.8536 47.2933 103.157 49.2152 105.653 49.7087C108.798 50.332 110.124 50.28 112.984 49.0074C116.546 47.4232 117.715 43.7353 117.377 43.2419C116.364 41.7875 111.034 44.2807 109.058 44.8261C106.693 45.4754 101.909 46.4882 97.0217 45.6052ZM108.122 53.1888C105.419 56.9027 95.8778 58.0713 91.4842 57.7857C86.0508 57.4221 81.3453 54.9288 78.2516 52.2279C80.2534 48.2283 87.7666 45.9429 93.278 46.7739C98.9454 47.605 102.455 51.9681 108.122 53.1888ZM96.1637 50.4878C90.9903 47.8128 85.5829 48.6958 80.7474 51.9941C79.9935 52.5135 87.1427 48.3322 95.1238 51.241C95.5918 51.3968 96.7357 50.7735 96.1637 50.4878ZM119.015 36.9569C116.338 40.463 113.53 42.6965 107.655 43.2419C102.819 43.6834 99.1274 42.7484 94.9679 41.1901C89.6384 39.1384 86.7527 38.9307 81.4753 39.528C78.0177 39.9176 76.0939 41.0343 74.456 41.7615C72.6102 42.5926 71.2324 43.6834 70.1405 43.4756C68.2947 43.3457 68.2947 40.0994 68.6327 39.2423C69.3606 36.3855 73.3902 35.1129 76.4838 34.2039C81.0853 32.8534 88.9625 32.6976 93.46 33.6845C100.635 35.009 112.152 42.7744 119.015 36.9569ZM106.875 40.1513C106.875 40.1513 100.141 39.4241 96.2417 36.3335C95.7478 35.944 94.6819 36.827 95.3318 37.3204C100.297 40.6447 106.875 40.1513 106.875 40.1513Z" fill="white"/>
<path d="M118.469 24.6725C119.145 26.7502 119.379 33.1651 119.067 33.6326C117.326 35.3986 115.116 36.1258 111.372 35.5544C110.098 35.3467 108.876 35.1129 107.681 34.8792C110.514 34.4896 114.362 32.334 115.22 29.0876C116.208 25.3738 114.18 22.1274 110.358 19.8679C112.256 20.1276 113.79 20.5951 114.596 21.0626C116.026 21.8677 117.716 23.1402 118.469 24.6725ZM99.3874 21.6599H99.1795C98.9715 21.6599 98.6335 21.6859 98.4515 21.7378V32.6976C99.1275 32.8534 99.7774 33.0093 100.453 33.1651C100.453 33.1391 100.427 33.1131 100.427 33.0872V22.6987C100.453 21.8417 100.167 21.6599 99.3874 21.6599ZM122.733 23.4259C122.551 24.3349 120.965 24.0233 119.665 24.1271C117.196 20.0497 112.698 19.5303 110.124 19.4264C108.98 19.4264 108.175 19.5043 108.175 19.5043C111.086 20.1795 113.66 23.1402 114.206 25.9971C114.934 29.8408 109.526 34.1001 105.055 34.2559C103.859 33.9702 102.663 33.6585 101.441 33.3729V22.6728C101.441 21.4002 100.791 20.8028 99.5954 20.8028H99.0755C98.6075 20.8028 97.8276 20.9067 97.4896 21.0106V32.4639C96.7617 32.308 96.0338 32.1522 95.2799 31.9964C95.0719 30.516 95.1499 28.4124 95.0979 26.8281C95.0719 25.9711 95.2019 21.4521 95.1499 21.4521C92.1082 22.1274 94.7599 19.9718 95.1239 19.6861C96.4497 18.6472 101.181 15.4528 100.557 15.7645C96.0858 18.0239 91.5363 20.7769 91.9002 22.3351C92.0042 22.7767 93.616 22.6208 93.98 22.5429C94.032 22.5429 93.928 26.1529 93.98 27.1917C94.032 28.6461 93.98 30.2563 94.084 31.7886C91.3543 31.3211 88.4946 30.9835 85.3229 30.9575C82.5932 31.1134 80.1755 31.451 78.0957 31.8146C77.0298 31.5289 76.0419 30.6719 75.9899 29.4512C75.8599 26.4905 80.0975 27.4255 81.6833 27.9189C84.257 28.6981 87.7407 30.0745 89.7425 27.5034C89.7685 27.4774 89.7685 27.4774 89.7685 27.4514C89.3525 27.815 86.9348 29.4253 80.3314 26.5684C78.7976 25.9192 74.976 25.8932 74.3261 28.4903C73.9361 30.0486 74.716 31.3991 75.9119 32.2301C71.8563 33.1131 69.5166 34.126 69.5166 34.126C64.7591 34.8272 65.383 24.8284 70.2185 27.9968C71.4144 28.6981 72.0643 28.724 73.0522 27.0879C73.8321 25.7893 70.8944 25.3478 69.9845 24.4907C68.3727 22.9325 69.9065 21.0366 71.7524 21.0366C72.5843 20.9846 74.5601 23.8155 75.028 22.6728C75.7819 20.3873 72.0903 20.0757 71.6224 18.9849C71.1804 17.946 72.3503 17.1929 72.9742 17.3747C73.8581 17.6603 74.898 19.6082 75.496 18.5434C75.8859 17.8162 75.6519 16.1281 75.444 14.9074C75.132 13.1933 76.3019 12.2324 77.2638 13.3232C77.8097 13.9465 77.6537 15.7645 77.7057 16.5176C77.6797 17.0111 77.6537 17.6863 77.8357 18.1019C78.0697 19.1147 79.0576 17.2188 79.7075 17.6084C80.9034 18.3096 79.6555 19.764 78.8496 20.8548C78.5896 21.2184 77.7837 22.5169 79.7075 22.0495C82.1513 21.4521 85.1149 19.8419 85.9988 23.5818C86.4148 25.3478 84.0751 26.049 82.5412 26.2568C83.0352 26.5425 84.257 27.3216 86.1808 27.2697C89.1445 26.9061 90.9643 24.5427 89.8204 22.4131C88.4946 19.9198 86.3108 20.9067 84.465 19.0888C82.2812 16.7254 84.725 13.6089 87.3507 13.8686C88.9105 14.1023 93.0961 18.0499 92.8881 14.336C92.7841 12.3622 86.7008 12.2843 89.2225 9.40154C90.2104 8.28478 91.4323 10.4144 92.7061 10.2326C96.5017 9.71319 94.396 7.6355 94.084 6.38889C92.7841 3.37624 93.4861 0.337625 96.2418 -0.0259705C99.2835 0.0259717 94.7599 7.68745 98.2176 8.67435C99.7774 9.08988 103.313 5.73961 102.481 9.40154C101.883 11.661 99.8554 10.8299 98.9195 12.544C97.9576 14.3101 98.6595 14.8295 100.323 14.8814C103.599 13.2453 106.485 10.5183 110.358 12.8817C114.206 15.2191 123.097 21.53 122.733 23.4259ZM106.199 28.4384C106.199 27.0359 105.549 26.3347 104.093 26.3347C103.443 26.3347 102.793 26.4645 102.429 26.5944V30.1005C102.429 30.6199 102.689 30.9056 103.313 30.9056H103.495V27.3735C103.625 27.3476 103.859 27.2956 104.145 27.2956C104.795 27.2956 105.133 27.6332 105.133 28.4124V30.1265C105.133 30.6459 105.393 30.9316 106.017 30.9316H106.199V28.4384ZM106.199 22.8546C106.199 21.4521 105.549 20.7509 104.093 20.7509C103.443 20.7509 102.793 20.8808 102.429 21.0106V24.5167C102.429 25.0361 102.689 25.3218 103.313 25.3218H103.495V21.7898C103.625 21.7638 103.859 21.7118 104.145 21.7118C104.795 21.7118 105.133 22.0495 105.133 22.8286V24.5427C105.133 25.0621 105.393 25.3478 106.017 25.3478H106.199V22.8546Z" fill="white"/>
<path d="M5.40743 81.757V88.6653H0V67.8365H8.63109C10.4509 67.8365 12.3227 68.1741 13.9085 69.7064C15.5464 71.2647 15.8583 73.0047 15.8583 74.7708C15.8583 76.4329 15.6503 78.3548 14.0125 79.965C12.3747 81.5492 10.4509 81.783 8.81307 81.783H5.40743V81.757ZM5.40743 77.3939H7.22723C7.79917 77.3939 8.86506 77.3419 9.51499 76.7446C10.1649 76.1732 10.1909 75.3421 10.1909 74.8487C10.1909 74.2773 10.1389 73.5242 9.56699 72.9788C8.94305 72.3295 7.92916 72.2256 7.25323 72.2256H5.40743V77.3939Z" fill="white"/>
<path d="M18.2501 74.6929H23.2416V76.9783C23.7355 76.0434 24.4635 75.4201 25.2174 75.0305C25.9713 74.615 26.8812 74.4591 27.8171 74.4591C27.9471 74.4591 28.1551 74.4851 28.805 74.5111V79.2378C28.545 79.108 27.8691 78.7444 26.6472 78.7444C25.9973 78.7444 25.0874 78.8482 24.3595 79.4975C23.2936 80.4584 23.2416 81.9388 23.2416 82.692V88.6653H18.2501V74.6929Z" fill="white"/>
<path d="M36.8381 86.7694L30.0789 74.7188H35.9022L39.6198 81.8609L43.2335 74.7188H48.9529L37.722 95.8333H32.1326L36.8381 86.7694Z" fill="white"/>
<path d="M66.1889 88.6653H61.1975V87.133C59.7936 88.951 57.9478 89.1328 56.9859 89.1328C54.9841 89.1328 53.3983 88.4835 52.0724 87.185C50.6686 85.8085 49.8107 83.8347 49.8107 81.6271C49.8107 79.2638 50.7986 77.316 52.0984 76.0953C53.4763 74.7708 55.3221 74.2254 57.0379 74.2254C58.9357 74.2254 60.2876 75.0565 61.1975 76.0434V65.8887H66.1889V88.6653ZM60.2876 84.0425C60.9375 83.4451 61.3534 82.5102 61.3534 81.6791C61.3534 80.9 60.9115 79.965 60.4175 79.4196C59.8456 78.8223 59.0657 78.4847 58.1298 78.4847C57.0639 78.4847 56.336 78.9521 55.92 79.3936C55.3481 79.965 54.9581 80.822 54.9581 81.757C54.9581 82.4842 55.2701 83.2893 55.92 83.9386C56.5959 84.6138 57.4279 84.8735 58.1298 84.8735C58.9617 84.8735 59.7676 84.5099 60.2876 84.0425Z" fill="white"/>
<path d="M84.465 82.614H74.0661C74.0661 83.3672 74.352 84.3541 74.95 84.9514C75.2619 85.2631 75.8859 85.6267 77.0038 85.6267C77.1337 85.6267 77.9916 85.6007 78.6416 85.2631C78.9535 85.0813 79.2915 84.7696 79.5255 84.3281H84.309C84.101 85.1073 83.659 86.198 82.6191 87.2109C81.5793 88.1978 79.9674 89.1588 76.9258 89.1588C75.08 89.1588 72.8702 88.7432 71.1544 87.0291C70.2445 86.1201 69.1006 84.406 69.1006 81.757C69.1006 79.4196 69.9845 77.5497 71.2064 76.355C72.3502 75.2383 74.17 74.3293 76.9258 74.3293C78.5636 74.3293 80.6434 74.6669 82.3072 76.2252C84.283 78.0951 84.517 80.5364 84.517 82.0946V82.614H84.465ZM79.8634 79.7313C79.7335 79.2118 79.4215 78.6145 79.0575 78.2249C78.4076 77.5757 77.4977 77.4718 77.0038 77.4718C76.1718 77.4718 75.4959 77.6795 74.976 78.2249C74.638 78.5885 74.326 79.1079 74.222 79.7313H79.8634Z" fill="white"/>
<path d="M88.2347 84.0425C88.8327 84.484 89.5606 84.8476 90.2365 85.0813C90.8604 85.2891 91.6404 85.4189 92.1863 85.4189C92.5503 85.4189 93.1482 85.315 93.4602 85.0553C93.6681 84.8476 93.7201 84.6398 93.7201 84.406C93.7201 84.1983 93.6941 83.9645 93.4602 83.7827C93.1482 83.4971 92.6542 83.4192 92.1343 83.2893L90.8084 82.9776C90.1325 82.8218 89.1186 82.5621 88.3647 81.757C87.8448 81.1856 87.4548 80.4065 87.4548 79.3417C87.4548 77.9912 87.9748 76.7446 88.7807 75.9395C89.8465 74.8487 91.7183 74.2514 93.7721 74.2514C95.8259 74.2514 97.4377 74.8227 98.2436 75.1603L96.5538 78.3548C95.8779 78.0431 94.838 77.6795 93.9281 77.6795C93.4342 77.6795 93.0962 77.7834 92.7842 77.9652C92.4983 78.1211 92.3423 78.3288 92.3423 78.6405C92.3423 79.082 92.6282 79.2897 92.9402 79.4196C93.4082 79.6014 93.8241 79.6014 94.604 79.8351L95.5139 80.0948C96.1639 80.2766 97.1777 80.7701 97.5677 81.1856C98.2436 81.8349 98.6336 82.9257 98.6336 83.9645C98.6336 85.6527 97.9057 86.7694 97.2297 87.4187C95.5919 89.0549 93.2262 89.1588 92.0823 89.1588C90.8344 89.1588 88.8587 89.0029 86.4669 87.5226L88.2347 84.0425Z" fill="white"/>
<path d="M116.026 82.614H105.627C105.627 83.3672 105.913 84.3541 106.511 84.9514C106.823 85.2631 107.447 85.6267 108.565 85.6267C108.695 85.6267 109.553 85.6007 110.202 85.2631C110.514 85.0813 110.852 84.7696 111.086 84.3281H115.87C115.662 85.1073 115.22 86.198 114.18 87.2109C113.14 88.1978 111.528 89.1588 108.487 89.1588C106.641 89.1588 104.431 88.7432 102.715 87.0291C101.805 86.1201 100.661 84.406 100.661 81.757C100.661 79.4196 101.545 77.5497 102.767 76.355C103.937 75.2383 105.731 74.3293 108.487 74.3293C110.124 74.3293 112.204 74.6669 113.868 76.2252C115.844 78.0951 116.078 80.5364 116.078 82.0946V82.614H116.026ZM111.424 79.7313C111.294 79.2118 110.982 78.6145 110.618 78.2249C109.968 77.5757 109.059 77.4718 108.565 77.4718C107.733 77.4718 107.057 77.6795 106.537 78.2249C106.199 78.5885 105.887 79.1079 105.783 79.7313H111.424Z" fill="white"/>
<path d="M118.885 74.6929H123.877V76.4329C125.255 74.6149 127.101 74.3812 128.322 74.3812C129.752 74.3812 131.286 74.7188 132.456 75.8875C133.652 77.0822 133.756 78.2509 133.756 79.7832V88.6393H128.764V81.5752C128.764 80.7701 128.79 79.5495 128.14 78.8482C127.672 78.3548 127.049 78.2509 126.555 78.2509C125.775 78.2509 125.125 78.5366 124.709 78.9002C124.215 79.3677 123.903 80.2766 123.903 81.1077V88.6134H118.911V74.6929H118.885Z" fill="white"/>
<path d="M137.188 74.6929H142.179V76.4329C143.557 74.6149 145.403 74.3812 146.624 74.3812C148.054 74.3812 149.588 74.7188 150.758 75.8875C151.954 77.0822 152.058 78.2509 152.058 79.7832V88.6393H147.066V81.5752C147.066 80.7701 147.092 79.5495 146.443 78.8482C145.975 78.3548 145.351 78.2509 144.857 78.2509C144.077 78.2509 143.427 78.5366 143.011 78.9002C142.517 79.3677 142.205 80.2766 142.205 81.1077V88.6134H137.213V74.6929H137.188Z" fill="white"/>
<path d="M160.507 86.7694L153.748 74.7188H159.571L163.289 81.8609L166.902 74.7188H172.622L161.391 95.8333H155.801L160.507 86.7694Z" fill="white"/>
<path d="M184.009 74.6929H189V88.6393H184.009V87.107C182.839 88.6913 181.045 89.1068 179.667 89.1068C178.159 89.1068 176.313 88.6653 174.623 86.8993C173.272 85.4709 172.622 83.8607 172.622 81.783C172.622 79.1599 173.662 77.3159 174.779 76.1992C175.975 75.0045 177.821 74.2254 179.823 74.2254C182.085 74.2254 183.411 75.3681 184.009 76.0434V74.6929ZM178.757 79.3936C178.081 80.0429 177.769 80.9519 177.769 81.6791C177.769 82.4842 178.107 83.3672 178.731 83.9645C179.251 84.458 180.135 84.8995 180.993 84.8995C181.799 84.8995 182.631 84.5619 183.255 83.9386C183.697 83.4971 184.19 82.8218 184.19 81.6791C184.19 81.0298 184.009 80.1468 183.229 79.3936C182.761 78.9521 182.033 78.4847 180.967 78.4847C180.317 78.4847 179.485 78.6924 178.757 79.3936Z" fill="white"/>
<path d="M47.835 108.481H45.3393V109.832H47.705V111.624H45.3393V113.026H47.835V114.818H43.2075V106.715H47.835V108.481Z" fill="white"/>
<path d="M58.0519 114.584C57.2199 114.896 56.752 114.974 56.232 114.974C54.8282 114.974 53.7623 114.403 53.0864 113.753C52.3065 112.974 51.8645 111.857 51.8645 110.793C51.8645 109.65 52.3584 108.533 53.0864 107.806C53.8143 107.079 54.8802 106.533 56.1541 106.533C56.544 106.533 57.1679 106.585 58.0519 106.949V109.468C57.3759 108.637 56.57 108.585 56.206 108.585C55.6081 108.585 55.1402 108.767 54.7502 109.131C54.2563 109.598 54.0483 110.221 54.0483 110.793C54.0483 111.364 54.2822 111.961 54.6982 112.377C55.0622 112.715 55.6081 112.948 56.206 112.948C56.518 112.948 57.2979 112.922 58.0519 112.091V114.584Z" fill="white"/>
<path d="M69.7506 113.805C68.9187 114.584 67.7488 115 66.5529 115C65.3571 115 64.1872 114.584 63.3553 113.805C62.4974 112.974 62.0814 111.858 62.0814 110.767C62.0814 109.676 62.4974 108.533 63.3553 107.728C64.1872 106.949 65.3571 106.533 66.5529 106.533C67.7488 106.533 68.9187 106.949 69.7506 107.728C70.6085 108.533 71.0245 109.676 71.0245 110.767C71.0245 111.832 70.6345 112.974 69.7506 113.805ZM64.9151 109.208C64.4732 109.624 64.2652 110.221 64.2652 110.793C64.2652 111.52 64.6031 112.013 64.9151 112.299C65.3051 112.689 65.851 112.948 66.5529 112.948C67.2809 112.948 67.8008 112.689 68.1908 112.325C68.5807 111.935 68.8407 111.39 68.8407 110.767C68.8407 110.143 68.5547 109.572 68.1908 109.208C67.7488 108.793 67.1249 108.559 66.5529 108.559C65.981 108.559 65.3571 108.767 64.9151 109.208Z" fill="white"/>
<path d="M82.7493 106.689L84.6991 111.624L86.6749 106.689H88.9626L85.505 114.792H83.8672L80.4615 106.689H82.7493Z" fill="white"/>
<path d="M94.9681 106.689V114.792H92.8623V106.689H94.9681Z" fill="white"/>
<path d="M101.831 106.689V113.026H104.353V114.818H99.7256V106.715H101.831V106.689Z" fill="white"/>
<path d="M110.592 106.689V113.026H113.114V114.818H108.487V106.715H110.592V106.689Z" fill="white"/>
<path d="M122.213 113.442H119.275L118.73 114.792H116.494L119.613 106.689H121.927L124.995 114.792H122.707L122.213 113.442ZM121.641 111.858L120.731 109.234L119.847 111.858H121.641Z" fill="white"/>
<path d="M132.586 110.221H136.772C136.772 111.832 136.434 112.974 135.472 113.883C134.614 114.662 133.652 114.896 132.612 114.896C131.156 114.896 130.142 114.351 129.492 113.701C128.894 113.104 128.323 112.117 128.323 110.767C128.323 109.468 128.842 108.429 129.544 107.728C130.22 107.053 131.26 106.533 132.69 106.533C133.444 106.533 134.25 106.715 134.874 107.079C135.498 107.468 136.018 108.118 136.33 108.741L134.328 109.572C134.172 109.182 133.938 108.923 133.756 108.767C133.392 108.481 133.028 108.377 132.612 108.377C132.118 108.377 131.598 108.559 131.234 108.949C130.766 109.416 130.532 110.169 130.532 110.819C130.532 111.572 130.792 112.169 131.182 112.559C131.572 112.974 132.04 113.182 132.664 113.182C133.028 113.182 133.444 113.13 133.834 112.792C134.016 112.637 134.25 112.351 134.328 111.883H132.586V110.221Z" fill="white"/>
<path d="M145.793 108.481H143.297V109.832H145.663V111.624H143.297V113.026H145.793V114.818H141.165V106.715H145.793V108.481Z" fill="white"/>
</g>
<defs>
<clipPath id="clip0">
<rect width="189" height="115" fill="white"/>
</clipPath>
</defs>
</svg>
