<svg width="608" height="805" viewBox="0 0 608 805" fill="none" xmlns="http://www.w3.org/2000/svg">
<path d="M299.3 532.5L293.6 531.4C283.9 529.4 262.2 518.3 235.8 497.8C214.2 481.1 182.8 452.8 155.6 413C61.1 275.1 81.6 133.5 82.5 127.5L84.2 116.3L93.1 109.3C94.5 108.2 127.1 83.1 192.8 67.7C268.4 50.1 330.1 50.1 405.7 67.7L410.1 68.8C472.9 84.2 504.1 108.3 505.4 109.3L514.3 116.3L516 127.5C516.9 133.5 537.4 275.1 442.9 413C415.6 452.8 384.2 481 362.7 497.8C336.3 518.3 314.6 529.5 304.9 531.4L299.3 532.5ZM94.7 122.5L93.7 129.3C92.8 135.1 72.9 272.4 164.9 406.6C191.3 445.1 221.8 472.6 242.7 488.8C269 509.2 289.2 518.9 295.8 520.3L299.2 521L302.6 520.3C309.1 519 329.3 509.3 355.7 488.8C376.6 472.6 407.1 445.1 433.5 406.6C525.5 272.4 505.6 135.1 504.7 129.3L503.7 122.5L498.3 118.3C497 117.3 466.3 93.6 403 78.8L401.1 78.3C328.2 61.5 268.5 61.7 195.3 78.8C132 93.6 101.3 117.3 100 118.3L94.7 122.5ZM299.3 484.7L296.6 483.3C276.3 472.4 228.7 438.2 193.6 387C122.9 283.9 124.8 175.6 127 144.8L127.2 141.8L129.8 140.3C141 133.8 165.4 121.5 203.3 112.6C253.1 101 310.9 92.9 395.2 112.6C433.2 121.5 457.6 133.7 468.7 140.3L471.3 141.8L471.5 144.8C473.8 175.6 475.6 283.9 404.9 387C369.8 438.2 322.1 472.4 301.9 483.3L299.3 484.7ZM138.1 148.6C136.1 182 136.5 283.6 202.9 380.6C235.3 427.9 278.5 459.9 299.3 471.8C320 460 363.3 427.9 395.7 380.6C462.2 283.7 462.5 182 460.5 148.6C448.9 142.1 426.5 131.5 392.7 123.7C310.6 104.6 254.4 112.4 205.9 123.7C172.1 131.5 149.7 142.1 138.1 148.6Z" fill="black"/>
<path d="M299.3 526.8L294.8 525.9C277.3 522.4 209.3 481.3 160.3 409.9C67 273.9 87.2 134.4 88.1 128.5L89.5 119.5L96.6 113.9C97.9 112.9 129.5 88.4001 194.1 73.4001C268.8 56.0001 329.7 56.0001 404.4 73.4001C469 88.5001 500.6 112.9 501.9 113.9L509 119.5L510.4 128.5C511.3 134.4 531.5 273.8 438.2 409.9C389.2 481.4 321.3 522.4 303.7 525.9L299.3 526.8ZM132.6 145.2C130.3 177.2 128.9 282.7 198.2 383.8C233.5 435.3 280.6 468.2 299.2 478.3C317.8 468.3 364.9 435.3 400.2 383.8C469.5 282.7 468.1 177.3 465.8 145.2C454.6 138.6 430.9 126.8 393.9 118.2C310.7 98.8001 253.7 106.7 204.5 118.2C167.6 126.8 143.9 138.6 132.6 145.2Z" fill="#434441"/>
<path d="M299.3 513.3L297.4 512.9C283.8 510.2 217.8 470.3 171.2 402.3C80.9001 270.5 100.3 136 101.2 130.4L101.8 126.5L104.9 124.1C106.1 123.1 135.5 100.5 197.3 86.0002C269.9 69.1002 329 69.1002 401.6 86.0002C463.4 100.4 492.7 123.1 494 124.1L497.1 126.5L497.7 130.4C498.6 136.1 518 270.6 427.7 402.3C381.1 470.3 315.1 510.1 301.5 512.9L299.3 513.3ZM120.1 137.5C117.7 160.6 110.1 278.5 187.4 391.2C229 451.8 285.4 487.1 299.3 492.9C313 487.2 369.5 451.9 411.2 391.2C488.5 278.4 480.9 160.6 478.5 137.5C469.8 131.8 443.1 116.1 397 105.3C327.6 89.1002 271 89.1002 201.7 105.3C155.5 116.1 128.8 131.7 120.1 137.5Z" fill="#E2B771"/>
<path d="M399.2 95.6998C459.5 109.8 487.7 131.9 487.7 131.9C487.7 131.9 508.5 266.7 419.3 396.8C372.5 465.1 308.7 501.4 299.3 503.3C289.9 501.4 226.1 465.1 179.3 396.8C90.1 266.7 110.9 131.9 110.9 131.9C110.9 131.9 139.1 109.8 199.4 95.6998C260.9 81.3998 319.5 77.0998 399.2 95.6998Z" fill="#434441"/>
<path d="M338.8 21.6093C334.3 36.0093 342.7 51.3093 357.9 56.6093C370.5 60.9093 384 55.1093 387.9 43.6093C391.2 34.1093 385.4 23.4093 375 19.9093C366.4 16.9093 357.1 20.9093 354.5 28.9093C352.2 36.1093 357.2 46.3093 363.5 45.8093C365.2 45.7093 366.7 44.6093 367.3 42.9093C368.1 40.7093 366.9 38.2093 364.7 37.5093C362.7 36.8093 360.6 37.7093 359.6 39.4093C358.1 36.7093 357.9 32.4093 359.8 29.1093C363 23.6093 368 23.5093 373.6 25.4093C381 27.9093 384.8 35.3093 382.5 41.8093C379.6 50.3093 369.3 54.6093 359.7 51.3093C347.4 47.1093 340.6 34.8093 344.2 23.5093C346.9 15.0093 351.5 9.6093 357.8 7.5093C366 4.8093 376 8.30929 381.8 12.6093C386.9 16.4093 480.3 90.1093 487.8 97.2093C497 105.909 507.3 108.709 516 105.009C519.9 103.409 522.7 100.309 524 96.5093C525.3 92.7093 524.9 88.6093 522.9 84.9093C519.5 78.8093 511.5 76.0093 505.1 78.8093C502.4 80.0093 500.3 82.1093 499.4 84.8093C498.5 87.5093 498.7 90.4093 500.2 93.1093C501.6 95.6093 504 96.7093 506.7 96.8093C507.9 96.8093 508.9 96.1093 509.3 95.0093C509.8 93.6093 509 92.0093 507.6 91.5093C506.2 91.0093 504.6 91.8093 504.1 93.2093C504 93.4093 504 93.6093 504 93.9093C503.6 93.5093 503.3 93.0093 503 92.5093C501.9 90.3093 501.3 83.9093 506.9 82.4093C510.9 81.4093 515.6 82.9093 517.8 87.7093C518.9 90.0093 519.3 92.4093 518.5 94.7093C517.7 97.0093 516 98.8093 513.6 99.8093C507 102.609 499 100.209 491.5 93.1093C483 85.0093 385.7 8.70929 385 8.10929C377.8 2.80929 366 -1.0907 355.8 2.2093C347.9 4.6093 342.1 11.2093 338.8 21.6093ZM513 95.3093C513.3 95.2093 513.2 95.2093 513 95.3093Z" fill="black"/>
<path d="M265.3 21.6095C262 11.2095 256.2 4.60949 248.1 1.90949C237.9 -1.39051 226.1 2.5095 218.9 7.8095C218.1 8.4095 120.9 84.7095 112.4 92.8095C104.9 99.8095 96.8997 102.309 90.2997 99.5095C87.8997 98.5095 86.1997 96.7095 85.3997 94.4095C84.5997 92.1095 85.0997 89.8095 86.0997 87.4095C88.2997 82.6095 92.9997 81.1095 96.9997 82.1095C102.7 83.6095 102 90.0095 100.9 92.2095C100.6 92.8095 100.3 93.2095 99.8997 93.6095C99.8997 93.4095 99.7997 93.1095 99.7997 92.9095C99.2997 91.5095 97.7997 90.7095 96.2997 91.2095C94.8997 91.7095 94.0997 93.2095 94.5997 94.7095C94.9997 95.9095 96.0997 96.6095 97.1997 96.5095C99.8997 96.4095 102.3 95.3095 103.7 92.8095C105.1 90.2095 105.4 87.3095 104.5 84.5095C103.6 81.8095 101.5 79.6095 98.7997 78.5095C92.3997 75.7095 84.3997 78.5095 80.9997 84.6095C78.9997 88.3095 78.5997 92.4095 79.8997 96.2095C81.1997 100.009 84.0997 103.009 87.8997 104.709C96.5997 108.409 106.9 105.61 116.1 96.9095C123.6 89.8095 217 16.1095 222.1 12.3095C227.9 8.0095 237.9 4.6095 246.1 7.2095C252.4 9.3095 257 14.6095 259.7 23.2095C263.3 34.6095 256.5 46.8095 244.2 51.0095C234.6 54.3095 224.4 50.1095 221.4 41.5095C219.2 35.0095 222.9 27.6095 230.3 25.1095C235.9 23.2095 240.9 23.3095 244.1 28.8095C246 32.1095 245.8 36.4095 244.3 39.1095C243.3 37.4095 241.2 36.5095 239.2 37.2095C237 38.0095 235.8 40.4095 236.6 42.6095C237.2 44.3095 238.7 45.4095 240.4 45.5095C246.8 46.1095 251.8 35.9095 249.4 28.6095C246.8 20.6095 237.5 16.7095 228.9 19.6095C218.5 23.2095 212.8 33.8095 216 43.3095C220 54.8095 233.4 60.7095 246 56.3095C261.5 51.3095 269.9 36.0095 265.3 21.6095ZM91.1997 95.3095C90.8997 95.2095 90.8997 95.2095 91.1997 95.3095Z" fill="black"/>
<path d="M249.8 474.3C241.6 474.3 233.8 471.4 227.5 466.1L233.8 458.7C243.8 467.6 260.4 466.2 268.9 455.8C275 448.6 274.1 437.7 266.9 431.6C262.1 427.5 254.8 428.1 250.8 432.9C248.2 435.9 248.6 440.5 251.6 443.1C253.2 444.6 256 444.3 257.4 442.6L264.8 448.9C262.4 451.7 259.1 453.4 255.4 453.7C251.7 454 248.1 452.9 245.3 450.5C238.2 444.4 237.3 433.7 243.3 426.6C250.9 417.7 264.3 416.6 273.2 424.1C294.8 443.8 276.6 474.6 249.8 474.3Z" fill="#E2B771"/>
<path d="M348.8 474.3C322 474.6 303.8 443.8 325.5 424.1C334.4 416.5 347.8 417.6 355.4 426.6C361.5 433.7 360.6 444.5 353.4 450.5C350.6 452.9 347 454 343.3 453.7C339.6 453.4 336.3 451.7 333.9 448.9L341.3 442.6C342.7 444.3 345.4 444.5 347.1 443.1C350.1 440.5 350.5 436 347.9 432.9C343.8 428.1 336.6 427.5 331.8 431.6C324.6 437.7 323.7 448.6 329.8 455.8C338.2 466.2 354.8 467.5 364.9 458.7L371.2 466.1C364.8 471.4 357 474.3 348.8 474.3Z" fill="#E2B771"/>
<path d="M194.8 358.7C189.5 358.7 185.3 357.3 182.3 354.6C179.2 351.8 177.7 348.1 177.7 343.4C177.7 341.8 178 340.1 178.7 338.2C179.4 336.3 180.4 334.6 182 333.1C184.7 330.4 188.5 329 193.5 329C195.5 329 197.3 329.2 199 329.5C199.4 329.6 200.7 329.8 203 330.1C203.2 330.1 203.3 330.3 203.3 330.5C203.3 330.6 203.3 330.7 203.3 330.9C203.3 331.1 203.2 331.3 203.2 331.6C203.2 331.9 203.1 332.3 203.1 332.6C203.1 333.1 203 333.8 203 334.8C203 335.8 203 336.4 203 336.5C203 337 202.9 337.3 202.7 337.3C202.5 337.3 202.4 337 202.4 336.5C202.4 334.8 201.9 333.5 200.8 332.6C200.1 332 199.1 331.5 197.7 331.1C196.3 330.7 194.8 330.5 193.3 330.5C189.4 330.5 186.5 331.4 184.6 333.3C183.3 334.5 182.4 336 181.9 337.6C181.4 339.2 181.2 341.1 181.2 343.2C181.2 346.9 182.5 350.2 185.1 352.9C187.7 355.7 190.9 357 194.9 357C198.1 357 200.2 356.4 201.5 355.1C202.2 354.4 202.7 353.3 202.9 351.9C203 351.5 203.1 351.3 203.3 351.3C203.5 351.3 203.6 351.5 203.6 351.9C203.6 352.1 203.5 352.8 203.3 354.1C203.1 355.3 202.9 356.2 202.8 356.8C202.7 357.2 202.6 357.4 202.5 357.5C202.4 357.6 202.2 357.7 201.8 357.9C200.2 358.4 197.9 358.7 194.8 358.7Z" fill="#E2B771"/>
<path d="M231 358.7C229 358.7 227.2 358.4 225.5 357.8C223.8 357.2 222.4 356.4 221.3 355.4C220.2 354.4 219.2 353.3 218.5 352C217.7 350.7 217.2 349.3 216.8 348C216.5 346.6 216.3 345.2 216.3 343.8C216.3 342.2 216.6 340.5 217.2 338.9C217.8 337.2 218.7 335.7 219.8 334.1C220.9 332.6 222.5 331.4 224.5 330.4C226.5 329.4 228.7 329 231.2 329C235.5 329 239.1 330.3 241.9 332.8C244.7 335.4 246.1 338.8 246.1 343.2C246.1 347.5 244.7 351.2 241.9 354.2C239.1 357.2 235.4 358.7 231 358.7ZM232 357.3C232.8 357.3 233.6 357.2 234.4 357C235.2 356.8 236.1 356.4 237.1 355.9C238.1 355.3 239 354.6 239.7 353.7C240.5 352.8 241.1 351.5 241.6 349.9C242.1 348.3 242.4 346.4 242.4 344.3C242.4 340 241.3 336.5 239 334.1C236.8 331.6 234 330.4 230.9 330.4C227.6 330.4 225 331.5 222.9 333.6C220.9 335.7 219.8 338.8 219.8 342.8C219.8 347.1 220.9 350.6 223.2 353.3C225.6 355.9 228.5 357.3 232 357.3Z" fill="#E2B771"/>
<path d="M270.7 331.2V347.2C270.7 351.6 270.8 354.4 270.9 355.4C271 356 271.1 356.5 271.3 356.9C271.5 357.3 271.8 357.4 272.4 357.5C273.1 357.6 273.7 357.7 274.1 357.7C274.3 357.7 274.4 357.8 274.4 357.9C274.4 358.1 274.2 358.2 273.8 358.2C273.2 358.2 272.5 358.2 271.8 358.2C271.1 358.2 270.4 358.2 269.9 358.1C269.4 358.1 269.1 358.1 269.1 358.1C269.1 358.1 268.8 358.1 268.4 358.1C267.9 358.1 267.4 358.1 266.8 358.2C266.2 358.2 265.7 358.2 265.4 358.2C265 358.2 264.8 358.1 264.8 357.9C264.8 357.7 264.9 357.7 265.1 357.7C265.4 357.7 265.8 357.6 266.2 357.5C266.8 357.4 267.1 356.7 267.3 355.4C267.4 354.3 267.5 351.6 267.5 347.2V331.2C266.9 331.2 266 331.2 264.7 331.2C263.4 331.2 262.5 331.2 261.9 331.2C260.7 331.2 259.8 331.3 259.3 331.5C258.8 331.7 258.3 332 258 332.4C257.7 332.8 257.5 333.2 257.4 333.6C257.3 333.9 257.2 334 257 334C256.9 334 256.8 333.9 256.8 333.7C256.8 333.3 257.1 332 257.6 329.8C257.8 329.3 257.9 329.1 258 329.1C258 329.1 258.2 329.2 258.6 329.3C258.9 329.4 259.3 329.5 259.7 329.5C260.9 329.6 261.9 329.7 262.7 329.7H276.9C278 329.7 278.9 329.6 279.6 329.5C279.8 329.5 279.9 329.4 280.1 329.4C280.3 329.4 280.4 329.3 280.5 329.3C280.6 329.3 280.7 329.3 280.7 329.3C280.8 329.3 280.9 329.5 280.9 329.8C280.9 330.2 280.9 331 280.8 332.1C280.8 333.2 280.7 333.8 280.7 333.9C280.7 334.2 280.6 334.4 280.4 334.4C280.2 334.4 280.1 334.2 280.1 333.8C280.1 333.7 280.1 333.7 280.1 333.6C280.1 333.5 280.1 333.4 280.1 333.4C280 332.1 278.4 331.4 275.4 331.3C274.9 331.3 274.1 331.3 273 331.3C272.1 331.2 271.3 331.2 270.7 331.2Z" fill="#E2B771"/>
<path d="M305.4 331.2V347.2C305.4 351.6 305.5 354.4 305.6 355.4C305.7 356 305.8 356.5 306 356.9C306.2 357.3 306.5 357.4 307.1 357.5C307.8 357.6 308.4 357.7 308.8 357.7C309 357.7 309.1 357.8 309.1 357.9C309.1 358.1 308.9 358.2 308.5 358.2C307.9 358.2 307.2 358.2 306.5 358.2C305.8 358.2 305.1 358.2 304.6 358.1C304.1 358.1 303.8 358.1 303.8 358.1C303.8 358.1 303.5 358.1 303.1 358.1C302.6 358.1 302.1 358.1 301.5 358.2C300.9 358.2 300.4 358.2 300.1 358.2C299.7 358.2 299.5 358.1 299.5 357.9C299.5 357.7 299.6 357.7 299.8 357.7C300.1 357.7 300.5 357.6 300.9 357.5C301.5 357.4 301.8 356.7 302 355.4C302.1 354.3 302.2 351.6 302.2 347.2V331.2C301.6 331.2 300.7 331.2 299.4 331.2C298.1 331.2 297.2 331.2 296.6 331.2C295.4 331.2 294.5 331.3 294 331.5C293.5 331.7 293 332 292.7 332.4C292.4 332.8 292.2 333.2 292.1 333.6C292 333.9 291.9 334 291.7 334C291.6 334 291.5 333.9 291.5 333.7C291.5 333.3 291.8 332 292.3 329.8C292.5 329.3 292.6 329.1 292.7 329.1C292.7 329.1 292.9 329.2 293.3 329.3C293.6 329.4 294 329.5 294.4 329.5C295.6 329.6 296.6 329.7 297.4 329.7H311.6C312.7 329.7 313.6 329.6 314.3 329.5C314.5 329.5 314.6 329.4 314.8 329.4C315 329.4 315.1 329.3 315.2 329.3C315.3 329.3 315.4 329.3 315.4 329.3C315.5 329.3 315.6 329.5 315.6 329.8C315.6 330.2 315.6 331 315.5 332.1C315.5 333.2 315.4 333.8 315.4 333.9C315.4 334.2 315.3 334.4 315.1 334.4C314.9 334.4 314.8 334.2 314.8 333.8C314.8 333.7 314.8 333.7 314.8 333.6C314.8 333.5 314.8 333.4 314.8 333.4C314.7 332.1 313.1 331.4 310.1 331.3C309.6 331.3 308.8 331.3 307.7 331.3C306.8 331.2 306 331.2 305.4 331.2Z" fill="#E2B771"/>
<path d="M339.8 347H331.7C331.5 347 331.4 347.1 331.3 347.3L329 354C328.6 355 328.5 355.8 328.5 356.5C328.5 356.9 328.6 357.1 328.9 357.3C329.2 357.5 329.5 357.6 329.8 357.6H330.1C330.4 357.6 330.6 357.7 330.6 357.8C330.6 358 330.4 358.1 329.9 358.1C329.5 358.1 329 358.1 328.3 358C327.6 358 327.2 357.9 327.1 357.9C327.1 357.9 326.5 357.9 325.5 358C324.4 358 323.6 358.1 322.8 358.1C322.3 358.1 322.1 358 322.1 357.8C322.1 357.6 322.3 357.6 322.6 357.6C322.8 357.6 323.1 357.6 323.5 357.5C324.3 357.4 324.9 357.1 325.4 356.5C325.9 355.9 326.3 355.1 326.7 354L335.3 330.5C335.7 329.5 335.9 329 336.1 329C336.3 329 336.6 329.5 336.9 330.4C337 330.7 337.6 332.3 338.8 335.4C340 338.5 341.2 341.8 342.6 345.4C344 349 345 351.6 345.7 353.3C346.7 355.8 347.8 357.2 349 357.5C349.5 357.7 349.9 357.7 350.5 357.7C350.8 357.7 350.9 357.8 350.9 357.9C350.9 358.1 350.6 358.2 350.1 358.2C347.9 358.2 345.9 358.2 344.2 358.1C343.4 358 343.1 358 343.1 357.8C343.1 357.7 343.2 357.6 343.4 357.5C343.8 357.4 343.8 357 343.6 356.5L340.1 347.2C340 347.1 339.9 347 339.8 347ZM332.1 345.7H339.3C339.5 345.7 339.5 345.6 339.5 345.4L335.9 335.2C335.7 334.6 335.5 334.6 335.3 335.2L332 345.4C331.9 345.6 331.9 345.7 332.1 345.7Z" fill="#E2B771"/>
<path d="M385.6 350.7V354.9C385.6 355.7 385.6 356.2 385.5 356.5C385.4 356.7 385.3 356.9 385.1 357C383 358.1 380.3 358.7 377.1 358.7C371.9 358.7 367.7 357.4 364.6 354.6C363.3 353.5 362.3 352 361.4 350.1C360.5 348.2 360.1 346.1 360.1 343.9C360.1 341 360.7 338.6 361.9 336.4C363.1 334.3 364.6 332.6 366.4 331.4C368.9 329.8 372.3 329 376.5 329C378.3 329 380.2 329.2 382.3 329.6C383.2 329.8 384.2 329.9 385.4 330C385.7 330 385.9 330.1 385.9 330.3C385.9 330.4 385.9 330.6 385.8 331C385.8 331.4 385.7 332 385.7 332.8C385.6 333.6 385.6 334.6 385.6 335.7C385.6 336.2 385.5 336.5 385.3 336.5C385.2 336.5 385.1 336.3 385 335.9C384.9 335 384.7 334.1 384.2 333.4C383.7 332.6 382.6 331.9 381.1 331.3C379.5 330.7 377.6 330.4 375.3 330.4C372 330.4 369.3 331.2 367.2 332.9C366.1 333.8 365.2 335.1 364.5 336.8C363.8 338.5 363.5 340.4 363.5 342.5C363.5 344.8 363.9 347 364.8 348.8C365.7 350.7 366.6 352.1 367.5 353C370.3 355.7 373.6 357 377.4 357C379.4 357 380.8 356.7 381.7 356.2C382.2 355.9 382.5 355.5 382.5 354.9V348.5C382.5 347 382.4 346 382.2 345.5C382 345.1 381.5 344.8 380.8 344.6C380.5 344.5 380.1 344.5 379.5 344.5C379.3 344.5 379.2 344.4 379.2 344.3C379.2 344.1 379.4 344 379.8 344C380.3 344 380.9 344 381.6 344C382.3 344 382.9 344 383.3 344.1C383.8 344.1 384 344.1 384.1 344.1C384.1 344.1 384.4 344.1 384.8 344.1C385.3 344.1 385.8 344.1 386.4 344C387 344 387.5 344 387.8 344C388.2 344 388.4 344.1 388.4 344.3C388.4 344.5 388.3 344.5 388.1 344.5C387.9 344.5 387.6 344.5 387.2 344.6C386.7 344.7 386.3 344.9 386.2 345.2C386 345.5 385.9 346 385.8 346.7C385.6 347.6 385.6 348.9 385.6 350.7Z" fill="#E2B771"/>
<path d="M405.1 347.2V340.5C405.1 335.9 405.1 333.1 405 332.3C404.9 331.6 404.8 331.1 404.6 330.8C404.4 330.5 404 330.3 403.4 330.1C403.3 330.1 403.2 330.1 403.1 330C403 330 402.8 330 402.7 330C402.5 330 402.4 330 402.3 330C402 330 401.8 329.9 401.8 329.8C401.8 329.6 402 329.5 402.4 329.5C403.7 329.5 405.1 329.5 406.7 329.6C411.9 329.6 414.8 329.6 415.4 329.6C416.3 329.5 416.9 329.5 417.1 329.4C417.3 329.3 417.4 329.2 417.5 329.2C417.6 329.2 417.7 329.3 417.7 329.5C417.7 329.6 417.7 329.8 417.6 330.1C417.5 330.5 417.5 330.9 417.4 331.3L417.2 333.6C417.1 334 417 334.2 416.9 334.2C416.7 334.2 416.6 334 416.6 333.7C416.6 333.2 416.5 332.8 416.4 332.5C416.1 331.7 415.2 331.3 413.7 331.1C413 331 411.3 331 408.5 331C408.3 331 408.3 331.1 408.3 331.4V341.8C408.3 342.1 408.4 342.2 408.5 342.2C411.9 342.2 413.9 342.2 414.5 342.1C415.5 342 416.1 341.8 416.4 341.5C416.6 341.2 416.8 341.1 416.9 341.1C417 341.1 417.1 341.2 417.1 341.4C417.1 341.5 417.1 341.6 417 341.7C417 341.9 416.9 342.1 416.9 342.5C416.8 342.8 416.8 343.2 416.8 343.5C416.7 344 416.7 344.5 416.7 345.1C416.7 345.7 416.7 346 416.7 346.1C416.6 346.5 416.6 346.7 416.4 346.7C416.2 346.7 416.1 346.5 416.1 346.1C416.1 345.7 416 345.3 415.9 345C415.7 344.3 415.1 343.9 413.9 343.8C412.8 343.7 411 343.6 408.5 343.6C408.3 343.6 408.2 343.7 408.2 343.9V347.2C408.2 347.4 408.2 348.1 408.2 349.1C408.2 350.2 408.2 351.1 408.2 352C408.2 352.9 408.2 353.4 408.2 353.6C408.2 354.4 408.4 355.1 408.5 355.5C408.7 355.9 409 356.2 409.4 356.4C410 356.6 411 356.7 412.5 356.7C414 356.7 415.2 356.6 415.9 356.4C416.5 356.2 416.9 355.9 417.2 355.5C417.5 355.1 417.7 354.4 417.8 353.6C417.9 353.2 418 353 418.1 353C418.2 353 418.3 353.2 418.3 353.6C418.3 353.8 418.2 354.3 418.1 355.3C418 356.3 417.9 356.9 417.8 357.3C417.7 357.8 417.5 358.1 417.3 358.2C417.1 358.3 416.6 358.3 415.8 358.3C415.1 358.3 413.2 358.3 410.3 358.2C407.3 358.1 405.7 358.1 405.6 358.1C405.3 358.1 404.9 358.1 404.3 358.2C403.7 358.3 403.2 358.3 402.8 358.2C402.4 358.2 402.2 358.1 402.2 357.9C402.2 357.8 402.3 357.7 402.6 357.7C403.1 357.6 403.4 357.6 403.5 357.6C404 357.5 404.3 357.2 404.5 356.7C404.7 356.2 404.8 355.3 404.9 354C405.1 352 405.1 349.8 405.1 347.2Z" fill="#E2B771"/>
<path d="M232.3 376.3V392.3C232.3 396.7 232.4 399.5 232.5 400.5C232.6 401.1 232.7 401.6 232.9 402C233.1 402.3 233.4 402.5 234 402.6C234.7 402.7 235.3 402.8 235.7 402.8C235.9 402.8 236 402.9 236 403C236 403.2 235.8 403.3 235.4 403.3C234.8 403.3 234.1 403.3 233.4 403.3C232.7 403.3 232 403.3 231.5 403.2C231 403.2 230.7 403.2 230.7 403.2C230.7 403.2 230.4 403.2 230 403.2C229.5 403.2 229 403.2 228.4 403.3C227.8 403.3 227.3 403.3 227 403.3C226.6 403.3 226.4 403.2 226.4 403C226.4 402.8 226.5 402.8 226.7 402.8C227 402.8 227.4 402.7 227.8 402.6C228.4 402.5 228.7 401.8 228.9 400.5C229 399.4 229.1 396.7 229.1 392.3V376.3C228.5 376.3 227.6 376.3 226.3 376.3C225 376.3 224.1 376.3 223.5 376.3C222.3 376.3 221.4 376.4 220.9 376.6C220.4 376.8 219.9 377.1 219.6 377.5C219.3 377.9 219.1 378.3 219 378.7C218.9 379 218.8 379.1 218.6 379.1C218.5 379.1 218.4 379 218.4 378.8C218.4 378.4 218.7 377.1 219.2 374.9C219.4 374.4 219.5 374.2 219.6 374.2C219.6 374.2 219.8 374.3 220.2 374.4C220.5 374.5 220.9 374.6 221.3 374.6C222.5 374.7 223.5 374.8 224.3 374.8H238.5C239.6 374.8 240.5 374.7 241.2 374.6C241.4 374.6 241.5 374.5 241.7 374.5C241.9 374.5 242 374.4 242.1 374.4C242.2 374.4 242.3 374.4 242.3 374.4C242.4 374.4 242.5 374.6 242.5 374.9C242.5 375.3 242.5 376.1 242.4 377.2C242.4 378.3 242.3 378.9 242.3 379C242.3 379.3 242.2 379.5 242 379.5C241.8 379.5 241.7 379.3 241.7 378.9C241.7 378.8 241.7 378.8 241.7 378.7C241.7 378.6 241.7 378.5 241.7 378.5C241.6 377.2 240 376.5 237 376.4C236.5 376.4 235.7 376.4 234.6 376.4C233.7 376.3 232.9 376.3 232.3 376.3Z" fill="#E2B771"/>
<path d="M268.1 403.8C266.1 403.8 264.3 403.5 262.6 402.9C260.9 402.3 259.5 401.5 258.4 400.5C257.3 399.5 256.3 398.4 255.6 397.1C254.8 395.8 254.3 394.4 253.9 393.1C253.6 391.7 253.4 390.3 253.4 388.9C253.4 387.3 253.7 385.6 254.3 384C254.9 382.3 255.8 380.8 256.9 379.3C258 377.8 259.6 376.6 261.6 375.6C263.6 374.6 265.8 374.2 268.3 374.2C272.6 374.2 276.2 375.5 279 378C281.8 380.6 283.2 384 283.2 388.4C283.2 392.8 281.8 396.4 279 399.4C276.2 402.3 272.6 403.8 268.1 403.8ZM269.2 402.4C270 402.4 270.8 402.3 271.6 402.1C272.4 401.9 273.3 401.5 274.3 401C275.3 400.4 276.2 399.7 276.9 398.8C277.7 397.9 278.3 396.6 278.8 395C279.3 393.4 279.6 391.5 279.6 389.4C279.6 385.1 278.5 381.6 276.2 379.2C274 376.7 271.2 375.5 268.1 375.5C264.8 375.5 262.2 376.6 260.1 378.7C258.1 380.8 257 383.9 257 387.9C257 392.2 258.1 395.7 260.4 398.4C262.8 401.1 265.7 402.4 269.2 402.4Z" fill="#E2B771"/>
<path d="M304.2 400.8L297.5 378.4C297.2 377.4 296.9 376.7 296.6 376.3C296.3 375.9 295.9 375.6 295.4 375.4C295 375.2 294.4 375.2 293.7 375.2C293.5 375.2 293.4 375.1 293.4 374.9C293.4 374.7 293.6 374.6 294 374.6C294.8 374.6 295.7 374.6 296.8 374.6L298.4 374.7C298.5 374.7 298.7 374.7 299.1 374.7C299.5 374.7 300 374.7 300.6 374.6C301.2 374.6 301.8 374.6 302.3 374.6C302.8 374.6 303 374.7 303 374.9C303 375.1 302.9 375.2 302.6 375.2C301.9 375.2 301.4 375.3 301.1 375.4C300.8 375.6 300.6 375.9 300.6 376.3C300.6 376.5 300.8 377.7 301.3 379.8C301.8 381.8 303.5 388 306.4 398.2L314.5 376.5C314.9 375.3 315.2 374.8 315.4 374.8C315.6 374.8 315.9 375.4 316.3 376.6L323.9 398.3C324 397.9 324.9 395.1 326.5 389.7C328.2 384.3 329.2 380.7 329.8 378.8C330.1 377.8 330.2 377 330.2 376.4C330.2 375.6 329.5 375.3 328 375.3C327.8 375.3 327.7 375.2 327.7 375C327.7 374.8 327.9 374.7 328.3 374.7C328.9 374.7 329.4 374.7 330 374.7C330.6 374.7 331.1 374.7 331.5 374.8C331.9 374.8 332.1 374.8 332.2 374.8L333.4 374.7C334.2 374.7 334.8 374.7 335.3 374.7C335.7 374.7 335.8 374.8 335.8 374.9C335.8 375.1 335.7 375.2 335.5 375.2C335 375.2 334.6 375.3 334.2 375.4C333.7 375.6 333.3 376 332.9 376.6C332.5 377.2 332.2 378.2 331.7 379.5C331.1 381.1 330 384.7 328.2 390.2C326.4 395.7 325.3 399.2 324.8 400.6C324.3 402 324 402.9 323.8 403.3C323.6 403.7 323.4 403.8 323.2 403.8C323 403.8 322.9 403.7 322.7 403.4C322.5 403.1 322.3 402.6 322.1 401.8L314.6 380.6C310.4 391.9 307.7 399 306.7 401.7C306.2 403 305.8 403.7 305.5 403.7C305.3 403.7 305.1 403.5 305 403.2C304.8 403 304.6 402.1 304.2 400.8Z" fill="#E2B771"/>
<path d="M348.9 397.7V392.1C348.9 388.3 348.9 385.4 348.9 383.5C348.9 381.6 348.9 380.5 348.9 380.4C348.9 380.3 348.9 378.8 348.9 376C348.9 374.7 349 374.1 349.3 374.1C349.4 374.1 349.5 374.2 349.7 374.3C349.8 374.4 350 374.6 350.2 374.9C350.4 375.2 350.6 375.3 350.6 375.4C351.5 376.5 355.5 380.8 362.6 388.4C363.9 389.8 365.7 391.7 367.8 394.1C370 396.5 371.3 397.9 371.6 398.3L371.2 379.1C371.2 377.8 371.1 377 370.9 376.5C370.7 376 370.3 375.7 369.7 375.5C369.1 375.4 368.6 375.3 368.1 375.3C367.7 375.3 367.6 375.2 367.6 375C367.6 374.8 367.9 374.7 368.4 374.7C369.1 374.7 369.9 374.7 370.9 374.8C371.9 374.8 372.4 374.9 372.4 374.9C372.5 374.9 372.8 374.9 373.6 374.8C374.3 374.8 375 374.7 375.6 374.7C376.1 374.7 376.3 374.8 376.3 375C376.3 375.1 376.2 375.2 375.9 375.3C375.7 375.3 375.4 375.4 374.9 375.5C374.4 375.6 374 375.9 373.8 376.3C373.6 376.7 373.5 377.6 373.5 378.9L373.4 401C373.4 401.6 373.4 402.1 373.4 402.5C373.4 402.9 373.4 403.1 373.3 403.3C373.3 403.5 373.2 403.6 373.2 403.6C373.2 403.7 373.1 403.7 373 403.7C372.8 403.7 371.9 402.9 370.2 401.3C370 401.1 369.5 400.5 368.4 399.5C367.4 398.5 366.1 397.1 364.5 395.5C362.9 393.9 361.5 392.4 360.3 391.1C356.8 387.3 353.5 383.7 350.4 380.2L350.9 398.3C350.9 399.8 351 400.9 351.3 401.5C351.5 402.1 351.9 402.5 352.4 402.7C353 402.9 353.6 402.9 354.3 402.9C354.5 402.9 354.6 403 354.6 403.1C354.6 403.3 354.4 403.4 353.9 403.4C353.3 403.4 352.6 403.4 352 403.4C351.4 403.4 350.9 403.4 350.5 403.3C350.1 403.2 349.9 403.3 349.9 403.3L348.6 403.4C347.7 403.4 346.9 403.4 346.3 403.4C345.9 403.4 345.7 403.3 345.7 403.1C345.7 402.9 345.8 402.9 346 402.9C346.6 402.9 347.1 402.8 347.6 402.7C348.1 402.6 348.4 402.2 348.5 401.5C348.8 400.7 348.9 399.5 348.9 397.7Z" fill="#E2B771"/>
<path d="M458.5 230.6C452.7 227 443.6 228.1 438.2 233.1C436.6 234.6 435.2 236.4 433.1 237.2C429.6 238.6 425.7 238.2 422.5 236.9C422.4 215.8 422.3 194.8 422.3 173.7C422.4 167.4 421.9 160.9 423.4 154.8C424.2 151.8 426.1 149.2 428.7 148.2C433.2 146.3 438 146.3 442.7 145.8C442.7 143.8 442.7 141.7 442.7 139.7C422.1 139.7 401.4 139.7 380.8 139.7C380.8 141.7 380.8 143.8 380.8 145.8C381 145.8 381.2 145.8 381.4 145.9L381 146L401.1 161.3C401.1 162.1 401.2 163 401.2 163.8C401.3 188 401.2 203.3 401.3 227.5C368.3 216 348.1 212 338 210.6C335.4 210.3 332.8 210.1 330.1 209.9C329.8 209.9 330.1 192.3 330.1 190.6C330.1 183.9 330.1 177.2 330.1 170.5C330.1 167.5 330 164.4 330.2 161.4L350.4 146L349.9 145.9C350.1 145.9 350.3 145.9 350.5 145.8C350.5 143.8 350.5 141.7 350.5 139.7C330.5 139.7 310.6 139.7 290.6 139.7C290.6 141.7 290.6 143.8 290.6 145.8C294.9 146.2 299.4 146.2 303.5 147.9C305.9 148.8 307.6 151.2 308.1 154C309.1 158.6 308.9 163.3 309 168C309 181.2 309 194.5 309 207.7C299.3 207.4 289.6 207.1 279.9 207.4C284.7 202.6 288.1 195.9 289.1 188.6C290.5 178 288.9 166.3 282.8 157.9C276.8 149.6 267.7 145.2 258.8 142.8C244 138.7 228.8 139.7 213.7 139.6C196 139.6 178.4 139.6 160.7 139.6C160.7 141.6 160.7 143.7 160.7 145.7C165.9 146.2 171.3 146.1 176.1 148.8C180.7 151.7 181 158.5 181.2 163.8C181.3 184.6 181.2 205.5 181.2 226.3C166.1 233.5 151.6 244.1 142 259.6C138.8 264.5 136.4 270.3 136.8 276.6C137.1 282.3 140.7 287.1 145 289.5C149.4 292.1 155 291.4 159 288.1C164.4 284 166.7 275 163.9 268.2C163.1 266.2 161.9 264.2 161.9 261.9C161.9 257.4 164.3 253.3 167.5 250.8C171.8 247.2 176.5 244.1 181.3 241.4C181.3 252.1 181.3 262.7 181.3 273.4C181.4 279.5 180.1 285.5 177.7 291C174.3 299 168 305 160.9 308.2C159.5 308.3 159.2 311 160.9 310.8C185.1 310.9 209.3 310.8 233.5 310.9C247.2 310.8 261.4 308.6 273.6 301C282.1 295.7 289.3 287 292.1 276.2C295.3 264.3 294.4 250.6 288.3 240.2C282.2 229.6 272 223.3 261.7 220C277.5 219 293.4 219.2 309.2 220.5C309.2 234.6 309.2 248.7 309.2 262.8C309.1 269 309.6 275.4 308.1 281.4C305.8 292.6 299.1 302.9 289.7 307.4C288.4 308.1 286.3 308.4 286.7 310.6C289.1 311.1 291.6 310.9 294 310.9C312.9 310.9 331.8 310.9 350.7 310.9C350.7 308.8 350.7 306.8 350.7 304.7C345.5 304.1 339.9 304.3 335.1 301.4C330.9 298.5 330.4 292.2 330.2 287.1C330.1 265.6 330.2 244.2 330.1 222.8C330.1 222.8 366 226.2 401.3 244.5C401.3 243.8 402.5 272.6 402.5 272.6C402.9 278.3 402.2 284.1 400.1 289.3C396.2 298.6 388.6 305.4 380.4 309C380.5 310.5 381.5 311.2 382.7 310.9C402.7 310.9 422.8 310.9 442.8 310.9C442.8 308.9 442.8 306.8 442.8 304.8C437.7 305.4 432 304.8 427.9 300.8C424.1 297.1 422.6 291.1 422.5 285.5C422.5 274.3 422.5 263 422.5 251.8C427.4 253.8 432.5 255.4 437.9 256.5C443.6 257.7 450 257.9 455.6 255.3C460.8 253 464 247.9 464.8 243.1C465.7 238.1 463 233.1 458.5 230.6ZM270.8 262.1C270.9 272.1 268.3 282.7 261.7 289.6C254.7 297.1 244.9 299.6 235.7 299.9C226.6 300 217.4 300 208.3 299.9C205 300.1 202.2 296.8 202.4 293C202.4 272.6 202.4 252.3 202.4 231.9C211 228.8 219.9 226.3 228.8 224.5C239.4 223.2 251 224.8 259.6 232.7C267.2 239.7 270.9 251.1 270.8 262.1ZM266.4 185.7C265.9 193.1 263.3 200.5 258.2 205.2C256.3 206.8 254.3 208.8 251.9 208.9C235.2 210.5 218.6 213.2 202.4 218.2C202.4 197.9 202.4 177.6 202.4 157.3C202.3 154.3 204.1 151.3 206.8 150.8C210.5 150.3 214.3 150.7 218.1 150.6C227.9 150.8 238 149.8 247.6 152.7C253.3 154.3 258.8 157.6 262.2 163.3C266.2 169.7 266.9 178 266.4 185.7Z" fill="#E2B771"/>
<path d="M76.8 640.9C76.8 659.4 62.8 670.1 43.5 670.1H0.199951V669.8C3.79995 667.1 8.59995 660.7 8.59995 647.9V593.2C8.59995 581.5 4.79995 574.5 0.199951 571.4V571H39.5C60.9 571 71.7 579 71.7 595.9C71.7 606.7 63.6 615.6 55.3 616.8V617.2C67.1 618.8 76.8 629.3 76.8 640.9ZM28 585V610.7H38.3C46.6 610.7 51.6 606.1 51.6 597C51.6 588.9 46.8 585 38.3 585H28ZM56.3999 640.1C56.3999 630.7 51.3 624.4 40.6 624.4H28V656H40.5C51.3 656.1 56.3999 649.6 56.3999 640.1Z" fill="#434441"/>
<path d="M159.8 642.9L155.8 671.3C150.5 670.4 146.8 670.2 138.4 670.2H88.1V669.9C91.7 667.5 95.8 660.5 95.8 648.8V592.5C95.8 580.7 91.8 573.8 88.1 571.4V571H139.3C145 571 151.3 570.6 154.4 569.9L156.8 595.4L156.5 595.5C153.1 588.5 145.2 585 134.1 585H115.3V610.1H126.1C137.9 610.1 141.9 610 148.3 609.1L144.2 633H144C141.6 626.6 136.4 624 128.5 624H115.4V656.1H130.9C143.4 656.1 153.4 651.4 159.5 642.7L159.8 642.9Z" fill="#434441"/>
<path d="M197.2 669.8C199.9 667.1 202 660 198.5 650.1L177 590.4C174.4 583.3 169.9 575.6 164 571.3V571H197.3V571.3C195 574 194 579.6 195.9 585L208.4 621.2C210.7 627.9 214.4 640 215.8 650.4H216.4C218.3 639.9 221.5 627.7 223.8 621L235.8 585.2C237.7 579.5 237.4 573.9 235.1 571.2V571H265.6V571.3C260.6 574.3 256.5 580.8 253.6 589.1L232.2 650.1C228.8 660.1 230.8 667.1 233.5 669.8V670.1H197.2V669.8Z" fill="#434441"/>
<path d="M344.3 642.9L340.3 671.3C335 670.4 331.3 670.2 322.9 670.2H272.6V669.9C276.2 667.5 280.3 660.5 280.3 648.8V592.5C280.3 580.7 276.3 573.8 272.6 571.4V571H323.8C329.5 571 335.8 570.6 338.9 569.9L341.3 595.4L341 595.5C337.6 588.5 329.7 585 318.6 585H299.8V610.1H310.6C322.4 610.1 326.4 610 332.8 609.1L328.7 633H328.4C326 626.6 320.8 624 312.9 624H299.8V656.1H315.3C327.8 656.1 337.8 651.4 343.9 642.7L344.3 642.9Z" fill="#434441"/>
<path d="M447.1 667.5V667.8L417.9 673.1C416 667.5 413.8 662.6 410.6 657.3L388.5 619.5H395.3C407.6 619.5 414.4 614.5 414.4 601.8C414.4 591.4 407.6 584.8 395.3 585L385.3 585.1V649.2C385.3 660.5 389.3 667.3 392.4 669.7V670H358.1V669.7C361.8 667.3 365.8 660.3 365.8 648.6V591.7C365.8 580.4 361.8 573.6 358.1 571.2V571H398.6C421.4 571 434.7 582.5 434.7 601.1C434.7 616.2 427.3 625.5 415.3 629.3L428.6 650.8C433.9 659.5 440.2 665.2 447.1 667.5Z" fill="#434441"/>
<path d="M502.9 670.1H452.3V669.8C455.9 667.4 460 660.4 460 648.7V591.8C460 580.5 456 573.7 452.3 571.3V571H487.2V571.3C483.6 573.7 479.5 580.7 479.5 592.4V655.8H493.6C506 655.8 516 651.5 522.1 643L522.4 643.1L518.7 671.2C513.3 670.2 509.5 670.1 502.9 670.1Z" fill="#434441"/>
<path d="M607.1 571V571.3C603.5 574 599.4 579.8 595.7 585.8L568.8 630.3V647.5C568.8 659.8 572.8 667.3 577.5 669.7V670H540.6V669.7C544.7 667.3 549.3 659.6 549.3 647.5V631L521.9 585.8C518.3 580 513.9 574 510.4 571.3V571H540.8V571.3C539.5 575.1 541.4 581.1 544.1 585.8L555.1 604.8C556.7 607.4 558.1 610.1 559.5 614.1H560.1C561.5 610 563.2 607.4 564.7 604.8L575.5 585.8C578.2 581.1 580.1 575.1 578.6 571.3V571H607.1Z" fill="#434441"/>
<path d="M157.2 719.2V780.1C157.2 792.2 161.5 799.5 165.4 802.1V802.4H128.4V802.1C131.9 799.5 136.2 792 136.2 780.1V753.4H95.5999V779.5C95.5999 792.2 99.6999 799.5 103.4 802.1V802.4H66.3999V802.1C70.1999 799.5 74.5999 792 74.5999 779.5V719.2C74.5999 706.5 70.2999 699.2 66.3999 696.6V696.3H103.4V696.6C99.8999 699.2 95.5999 706.7 95.5999 719.2V738.1H136.2V719.2C136.2 706.5 132.1 699.2 128.4 696.6V696.3H165.4V696.6C161.6 699.2 157.2 706.7 157.2 719.2Z" fill="#434441"/>
<path d="M197.2 802.1C201 799.5 205.4 792 205.4 779.5V719.2C205.4 706.5 201.1 699.2 197.2 696.6V696.3H234.8V696.6C231 699.2 226.6 706.7 226.6 719.2V779.5C226.6 792.2 230.9 799.5 234.8 802.1V802.4H197.2V802.1Z" fill="#434441"/>
<path d="M320.7 802.4H266.5V802.1C270.3 799.5 274.7 792 274.7 779.5V718.6C274.7 706.5 270.4 699.2 266.5 696.6V696.3H303.9V696.6C300.1 699.2 295.7 706.7 295.7 719.2V787.2H310.8C324.1 787.2 334.8 782.6 341.3 773.5L341.6 773.7L337.6 803.8C331.9 802.6 327.7 802.4 320.7 802.4Z" fill="#434441"/>
<path d="M419 802.4H364.8V802.1C368.6 799.5 373 792 373 779.5V718.6C373 706.5 368.7 699.2 364.8 696.6V696.3H402.2V696.6C398.4 699.2 394 706.7 394 719.2V787.2H409.1C422.4 787.2 433.1 782.6 439.6 773.5L439.9 773.7L435.9 803.8C430.2 802.6 426.1 802.4 419 802.4Z" fill="#434441"/>
<path d="M461.3 798.6L458.7 772.9L459 772.7C468.2 784.6 478.1 789 490.6 788.7C503 788.4 508.3 783.2 508.3 775C508.3 764.5 499 760.5 488.6 756.2C475.3 750.7 460.5 744.4 460.5 723.2C460.5 708.1 473.5 694.2 497.1 694.2C505 694.2 512.2 695.1 521.1 697.4L523.1 722.4H522.8C516.2 712.3 507.5 709.9 498.7 709.9C487.1 709.9 481.1 713.9 481.1 721.7C481.1 730.6 489.6 734.1 499.6 738.2C513.2 743.9 529.4 750.6 529.4 773.5C529.4 790.4 516.9 804.3 492.1 804.6C479.8 804.8 468.2 802.7 461.3 798.6Z" fill="#434441"/>
</svg>
