<svg width="151" height="91" viewBox="0 0 151 91" fill="none" xmlns="http://www.w3.org/2000/svg">
<path d="M99.7596 22.0102C99.9881 22.0102 100.403 21.6608 99.9881 21.6608C99.7596 21.6608 99.3443 22.0102 99.7596 22.0102Z" fill="white"/>
<path d="M58.4889 37.5468C57.8242 35.1217 64.6161 32.8611 69.5595 32.9228C74.482 32.9844 77.3275 35.3683 82.167 35.5944C78.1584 36.0054 73.8589 35.019 69.6218 36.2315C66.6101 37.0946 65.6962 38.1838 63.2453 38.8209C61.189 39.3758 58.9874 39.7046 58.4473 37.5057L58.4889 37.5468ZM77.6599 36.6014C78.3037 37.8961 82.3955 39.3553 84.3064 39.7252C86.7365 40.1978 87.7542 40.1567 89.9559 39.1908C92.6976 37.9783 93.6114 35.1628 93.3414 34.7929C92.5729 33.6832 88.4604 35.5944 86.9234 36.0054C85.1164 36.4987 81.4401 37.2796 77.6599 36.6014ZM86.2172 42.3968C84.1402 45.2329 76.7667 46.1166 73.3812 45.8905C69.1856 45.6233 65.5716 43.7121 63.1622 41.657C64.6992 38.6154 70.4941 36.848 74.752 37.5057C79.1346 38.1427 81.8347 41.472 86.2172 42.3968ZM76.9952 40.3212C72.9866 38.2866 68.8325 38.9442 65.1146 41.472C64.533 41.8625 70.0579 38.6565 76.2059 40.8966C76.5383 41.0199 77.4314 40.5472 76.9952 40.3212ZM94.6084 29.984C92.5522 32.6556 90.3713 34.3819 85.8641 34.7929C82.1462 35.1423 79.3007 34.423 76.0813 33.231C71.9688 31.6692 69.7464 31.5048 65.6754 31.9569C63.0168 32.2651 61.5214 33.1077 60.2544 33.6626C58.842 34.2997 57.7619 35.1423 56.9311 34.9779C55.5187 34.8957 55.5187 32.3884 55.768 31.7514C56.3288 29.5524 59.4443 28.5865 61.8121 27.9083C65.3639 26.8808 71.4288 26.7575 74.8974 27.4973C80.4431 28.5043 89.3328 34.423 94.6084 29.984ZM85.241 32.4295C85.241 32.4295 80.0484 31.8747 77.0368 29.5113C76.6421 29.203 75.8321 29.8812 76.3306 30.2511C80.1731 32.82 85.241 32.4295 85.241 32.4295Z" fill="url(#paint0_linear)"/>
<path d="M94.1931 20.6127C94.7123 22.1951 94.8992 27.1068 94.65 27.4562C93.2999 28.8126 91.6175 29.3674 88.7097 28.9153C87.7335 28.7715 86.7781 28.5865 85.8642 28.381C88.045 28.0727 91.0152 26.4492 91.6798 23.942C92.4483 21.1059 90.8906 18.6192 87.9204 16.893C89.3951 17.0985 90.579 17.4478 91.1814 17.7972C92.303 18.4754 93.6115 19.4413 94.1931 20.6127ZM79.4877 18.311H79.3423C79.1969 18.311 78.9269 18.3315 78.7815 18.3521V26.7163C79.3008 26.8397 79.7992 26.963 80.3185 27.0863C80.3185 27.0657 80.3185 27.0452 80.3185 27.0246V19.1125C80.2977 18.4548 80.09 18.311 79.4877 18.311ZM97.4748 19.6673C97.3294 20.3661 96.1039 20.1195 95.1069 20.2017C93.1961 17.0985 89.7274 16.6874 87.7543 16.6258C86.8819 16.6258 86.2588 16.6874 86.2588 16.6874C88.502 17.2012 90.4752 19.4824 90.9114 21.6402C91.4721 24.579 87.2973 27.8467 83.8495 27.9494C82.9148 27.7234 82.0009 27.4973 81.0662 27.2712V19.0919C81.0662 18.126 80.5677 17.6739 79.6331 17.6739H79.2384C78.8854 17.6739 78.2622 17.7561 78.013 17.8383V26.5725C77.4522 26.4492 76.8914 26.3259 76.3098 26.2231C76.1644 25.0928 76.206 23.4693 76.1644 22.2773C76.1437 21.6197 76.2268 18.1671 76.206 18.1671C73.8589 18.6809 75.9152 17.0368 76.1852 16.8108C77.203 16.0093 80.8585 13.5842 80.3808 13.8308C76.9329 15.5366 73.4435 17.6533 73.7135 18.8453C73.7966 19.1947 75.0221 19.0508 75.3129 19.0097C75.3544 19.0097 75.2713 21.7841 75.3129 22.5445C75.3544 23.6542 75.3129 24.8873 75.3959 26.0382C73.2981 25.6682 71.0757 25.4216 68.6456 25.4011C66.5478 25.5244 64.6785 25.771 63.0792 26.0587C62.2691 25.8327 61.5006 25.1956 61.4591 24.2502C61.3552 21.9896 64.6369 22.7089 65.8624 23.0788C67.8563 23.6748 70.5149 24.7229 72.0727 22.75C72.0935 22.7294 72.0935 22.7294 72.0935 22.7089C71.7819 22.9966 69.9126 24.2297 64.8239 22.0307C63.6607 21.5169 60.6906 21.5169 60.1921 23.5104C59.8805 24.7023 60.5036 25.7505 61.4175 26.367C58.2812 27.0452 56.495 27.8056 56.495 27.8056C52.8394 28.3399 53.3171 20.6949 57.035 23.1199C57.9489 23.6542 58.4682 23.6748 59.2159 22.4212C59.8182 21.4142 57.5543 21.1059 56.8481 20.4277C55.6019 19.2358 56.7858 17.7972 58.2189 17.7766C58.8628 17.7355 60.3998 19.8934 60.7529 19.0097C61.3345 17.2629 58.4889 17.0163 58.1151 16.1942C57.7827 15.4133 58.6759 14.8173 59.1536 14.9817C59.839 15.1872 60.6283 16.6874 61.0852 15.8654C61.3968 15.3105 61.2098 14.0158 61.0437 13.091C60.7944 11.7757 61.7083 11.0565 62.4561 11.8785C62.8715 12.3512 62.7468 13.7486 62.8091 14.3241C62.7884 14.7145 62.7676 15.2078 62.913 15.5366C63.0999 16.3175 63.8684 14.8584 64.3669 15.1461C65.3016 15.6804 64.3461 16.7902 63.723 17.6328C63.5153 17.9 62.913 18.8864 64.3877 18.537C66.2778 18.0849 68.5625 16.8519 69.2272 19.7084C69.5387 21.0443 67.7525 21.5991 66.5686 21.7635C66.9424 21.9896 67.8979 22.5856 69.3933 22.5445C71.6781 22.2773 73.0904 20.4688 72.1973 18.8248C71.1796 16.9135 69.4972 17.6739 68.064 16.297C66.3816 14.509 68.2717 12.1046 70.2865 12.3101C71.4911 12.495 74.7105 15.4955 74.5444 12.68C74.4613 11.1798 69.788 11.1181 71.7196 8.91915C72.4881 8.05601 73.4228 9.67954 74.4197 9.55623C77.3483 9.16576 75.7075 7.56278 75.479 6.63799C74.482 4.33627 75.0221 2.014 77.1406 1.72629C79.4877 1.76739 75.9983 7.60389 78.6776 8.38482C79.8823 8.69309 82.6032 6.14476 81.9594 8.9397C81.5024 10.666 79.9446 10.0289 79.2177 11.3442C78.4699 12.68 79.01 13.091 80.2977 13.1321C82.8109 11.8991 85.0541 9.78229 88.045 11.6113C90.8906 13.3993 97.7655 18.2288 97.4748 19.6673ZM84.7426 23.4898C84.7426 22.4212 84.2233 21.8869 83.1225 21.8869C82.6032 21.8869 82.1255 21.9896 81.8347 22.0924V24.7846C81.8347 25.1956 82.0424 25.4011 82.5201 25.4011H82.6655V22.6883C82.7694 22.6678 82.9563 22.6267 83.164 22.6267C83.6625 22.6267 83.9325 22.8733 83.9325 23.4693V24.764C83.9325 25.175 84.1402 25.3805 84.618 25.3805H84.7633V23.4898H84.7426ZM84.7426 19.2358C84.7426 18.1671 84.2233 17.6328 83.1225 17.6328C82.6032 17.6328 82.1255 17.7355 81.8347 17.8383V20.5305C81.8347 20.9415 82.0424 21.147 82.5201 21.147H82.6655V18.4137C82.7694 18.3932 82.9563 18.3521 83.164 18.3521C83.6625 18.3521 83.9325 18.5987 83.9325 19.1947V20.4894C83.9325 20.9004 84.1402 21.1059 84.618 21.1059H84.7633V19.2358H84.7426Z" fill="url(#paint1_linear)"/>
<path d="M6.99952 64.222V69.5036H2.84546V53.5971H9.49195C10.8836 53.5971 12.3375 53.8643 13.5629 55.0357C14.8091 56.2276 15.0584 57.5634 15.0584 58.8993C15.0584 60.1734 14.8922 61.6325 13.646 62.8656C12.3998 64.0781 10.9043 64.2425 9.63735 64.2425H6.99952V64.222ZM6.99952 60.8722H8.39113C8.8273 60.8722 9.63735 60.8311 10.1566 60.3789C10.6551 59.9474 10.6966 59.3103 10.6966 58.9198C10.6966 58.4882 10.6551 57.9128 10.2189 57.4812C9.7412 56.988 8.97269 56.9058 8.43267 56.9058H7.02029V60.8722H6.99952Z" fill="#43532C"/>
<path d="M16.907 58.8171H20.7703V60.5639C21.1649 59.8446 21.7049 59.372 22.2865 59.0842C22.8681 58.776 23.5742 58.6527 24.2804 58.6527C24.3843 58.6527 24.5504 58.6732 25.0489 58.6938V62.2902C24.862 62.1875 24.322 61.8997 23.3873 61.8997C22.8888 61.8997 22.1826 61.9614 21.6218 62.4752C20.8118 63.215 20.7495 64.3453 20.7495 64.9002V69.4625H16.907V58.8171Z" fill="#43532C"/>
<path d="M31.2592 68.0239L26.0459 58.8171H30.5323L33.3986 64.2836L36.2026 58.8171H40.6059L31.9447 74.9496H27.6244L31.2592 68.0239Z" fill="#43532C"/>
<path d="M53.8989 69.4831H50.0356V68.3116C48.9555 69.6886 47.5224 69.8324 46.7747 69.8324C45.2377 69.8324 44.0122 69.3392 42.9945 68.3528C41.9144 67.3047 41.2498 65.8044 41.2498 64.0987C41.2498 62.2902 42.0183 60.8105 43.0152 59.8857C44.0745 58.8787 45.5077 58.4471 46.8162 58.4471C48.2909 58.4471 49.3294 59.0842 50.0148 59.8241V52.0763H53.8781V69.4831H53.8989ZM49.3294 65.9483C49.8279 65.4962 50.1394 64.7769 50.1394 64.1398C50.1394 63.5438 49.8071 62.8245 49.4125 62.4135C48.9763 61.9614 48.374 61.6942 47.647 61.6942C46.837 61.6942 46.2762 62.0436 45.9438 62.3929C45.5077 62.8245 45.1961 63.4822 45.1961 64.2014C45.1961 64.7563 45.4454 65.3728 45.9438 65.8661C46.4839 66.4004 47.107 66.5854 47.647 66.5854C48.2909 66.6059 48.914 66.3182 49.3294 65.9483Z" fill="#43532C"/>
<path d="M67.9602 64.8591H59.9221C59.9221 65.4345 60.1298 66.1949 60.6075 66.647C60.8568 66.8936 61.3345 67.1813 62.2068 67.1813C62.3107 67.1813 62.9753 67.1608 63.453 66.8936C63.7023 66.7498 63.9515 66.5032 64.1385 66.1743H67.8356C67.6694 66.7703 67.3371 67.6129 66.527 68.3733C65.7378 69.1337 64.4708 69.853 62.1445 69.853C60.7321 69.853 59.0082 69.5447 57.6789 68.2294C56.9727 67.5307 56.0796 66.236 56.0796 64.2014C56.0796 62.4135 56.765 60.9749 57.6997 60.0707C58.5928 59.2075 59.9844 58.5294 62.103 58.5294C63.3492 58.5294 64.9693 58.7965 66.257 59.9885C67.7733 61.427 67.9602 63.2766 67.9602 64.4686V64.8591ZM64.4293 62.6601C64.3254 62.2491 64.0969 61.797 63.8061 61.5093C63.3077 61.016 62.6015 60.9338 62.2068 60.9338C61.5629 60.9338 61.0437 61.0982 60.6491 61.5093C60.379 61.797 60.1506 62.1669 60.0675 62.6601H64.4293Z" fill="#43532C"/>
<path d="M70.8889 65.9483C71.3458 66.2771 71.9067 66.5648 72.4259 66.7292C72.9036 66.8936 73.506 66.9964 73.9214 66.9964C74.2122 66.9964 74.6691 66.9347 74.9183 66.7087C75.0845 66.5443 75.1053 66.4004 75.1053 66.2154C75.1053 66.051 75.0845 65.8866 74.9183 65.7428C74.6691 65.5373 74.2952 65.4551 73.9006 65.3523L72.8829 65.1057C72.3428 64.9824 71.5743 64.7974 70.9928 64.1809C70.5773 63.7493 70.2866 63.1533 70.2866 62.3518C70.2866 61.3243 70.702 60.3789 71.3043 59.7419C72.1143 58.8993 73.5683 58.4471 75.1676 58.4471C76.7669 58.4471 77.9923 58.8787 78.6155 59.1459L77.3069 61.5709C76.7669 61.3243 75.9776 61.0366 75.2922 61.0366C74.8976 61.0366 74.6483 61.0982 74.3991 61.2421C74.1914 61.3654 74.0668 61.5298 74.0668 61.7764C74.0668 62.1052 74.2745 62.2696 74.5237 62.3724C74.8768 62.5163 75.1884 62.5163 75.8115 62.6807L76.5177 62.8656C77.0161 63.0095 77.8054 63.3999 78.117 63.7082C78.657 64.2014 78.927 65.044 78.927 65.825C78.927 67.1197 78.3662 67.9623 77.847 68.4761C76.6007 69.7091 74.7522 69.8119 73.8591 69.8119C72.9036 69.8119 71.3666 69.6886 69.5181 68.5788L70.8889 65.9483Z" fill="#43532C"/>
<path d="M92.3029 64.8591H84.2649C84.2649 65.4345 84.4726 66.1949 84.9503 66.647C85.1995 66.8936 85.6772 67.1813 86.5496 67.1813C86.6534 67.1813 87.3181 67.1608 87.7958 66.8936C88.045 66.7498 88.2943 66.5032 88.4604 66.1743H92.1575C91.9914 66.7703 91.6591 67.6129 90.849 68.3733C90.0598 69.1337 88.7928 69.853 86.4665 69.853C85.0541 69.853 83.3302 69.5447 82.0009 68.2294C81.2947 67.5307 80.4016 66.236 80.4016 64.2014C80.4016 62.4135 81.0663 60.9749 82.0217 60.0707C82.9148 59.2075 84.3064 58.5294 86.425 58.5294C87.6712 58.5294 89.2913 58.7965 90.579 59.9885C92.0952 61.427 92.2822 63.2766 92.2822 64.4686V64.8591H92.3029ZM88.772 62.6601C88.6681 62.2491 88.4397 61.797 88.1489 61.5093C87.6504 61.016 86.9442 60.9338 86.5496 60.9338C85.9057 60.9338 85.3865 61.0982 84.9918 61.5093C84.7218 61.797 84.4933 62.1669 84.4103 62.6601H88.772Z" fill="#43532C"/>
<path d="M94.5254 58.8171H98.3887V60.1529C99.4479 58.776 100.881 58.5705 101.816 58.5705C102.917 58.5705 104.1 58.8376 104.994 59.7213C105.908 60.6256 106.011 61.5298 106.011 62.7012V69.4831H102.148V64.0987C102.148 63.4822 102.169 62.5574 101.67 62.023C101.317 61.6326 100.819 61.5709 100.445 61.5709C99.8426 61.5709 99.3441 61.7764 99.0325 62.0641C98.6379 62.4135 98.4094 63.1122 98.4094 63.7493V69.4831H94.5462V58.8171H94.5254Z" fill="#43532C"/>
<path d="M108.629 58.8171H112.492V60.1529C113.551 58.776 114.984 58.5705 115.919 58.5705C117.02 58.5705 118.204 58.8376 119.097 59.7213C120.011 60.6256 120.115 61.5298 120.115 62.7012V69.4831H116.251V64.0987C116.251 63.4822 116.272 62.5574 115.774 62.023C115.421 61.6326 114.922 61.5709 114.548 61.5709C113.946 61.5709 113.447 61.7764 113.136 62.0641C112.741 62.4135 112.513 63.1122 112.513 63.7493V69.4831H108.629V58.8171Z" fill="#43532C"/>
<path d="M126.616 68.0239L121.402 58.8171H125.889L128.755 64.2836L131.559 58.8171H135.962L127.301 74.9496H122.981L126.616 68.0239Z" fill="#43532C"/>
<path d="M144.748 58.8171H148.611V69.4831H144.748V68.3117C143.855 69.5242 142.463 69.8324 141.404 69.8324C140.241 69.8324 138.828 69.5036 137.52 68.1473C136.481 67.058 135.983 65.825 135.983 64.2426C135.983 62.2491 136.772 60.8311 137.645 59.9679C138.558 59.0637 139.992 58.4677 141.529 58.4677C143.273 58.4677 144.291 59.3514 144.769 59.8446V58.8171H144.748ZM140.698 62.4135C140.158 62.9067 139.929 63.6055 139.929 64.1603C139.929 64.7769 140.199 65.4551 140.677 65.9072C141.092 66.2977 141.757 66.6265 142.422 66.6265C143.045 66.6265 143.668 66.3593 144.166 65.8866C144.499 65.5578 144.893 65.0235 144.893 64.1603C144.893 63.6671 144.748 62.9889 144.146 62.4135C143.793 62.0847 143.232 61.7148 142.401 61.7148C141.902 61.7148 141.238 61.8792 140.698 62.4135Z" fill="#43532C"/>
<path d="M39.7336 84.6292H37.802V85.6567H39.6298V87.0131H37.802V88.0818H39.7336V89.4381H36.1819V83.2317H39.7336V84.6292Z" fill="#43532C"/>
<path d="M47.6055 89.2943C46.9616 89.5203 46.6085 89.6025 46.1931 89.6025C45.1131 89.6025 44.2823 89.171 43.763 88.6777C43.1607 88.0817 42.8076 87.2186 42.8076 86.4171C42.8076 85.5334 43.2022 84.6908 43.763 84.1359C44.3238 83.5811 45.1546 83.17 46.1308 83.17C46.4216 83.17 46.9201 83.2111 47.6055 83.4783V85.4101C47.0863 84.773 46.4632 84.7319 46.1931 84.7319C45.7154 84.7319 45.3623 84.8758 45.0716 85.1429C44.6769 85.4923 44.5315 85.9855 44.5315 86.4171C44.5315 86.8487 44.7185 87.3214 45.03 87.6296C45.3 87.8762 45.7362 88.0612 46.1931 88.0612C46.4424 88.0612 47.0447 88.0406 47.6055 87.4036V89.2943Z" fill="#43532C"/>
<path d="M56.6405 88.6777C55.9966 89.2737 55.1035 89.6025 54.1688 89.6025C53.2341 89.6025 52.341 89.2943 51.6971 88.6777C51.0325 88.0406 50.7209 87.1775 50.7209 86.3555C50.7209 85.5334 51.0325 84.6497 51.6971 84.0332C52.341 83.4372 53.2341 83.1084 54.1688 83.1084C55.1035 83.1084 55.9966 83.4167 56.6405 84.0332C57.3051 84.6497 57.6167 85.5334 57.6167 86.3555C57.6167 87.1775 57.3051 88.0406 56.6405 88.6777ZM52.9018 85.184C52.5695 85.5129 52.4033 85.965 52.4033 86.3966C52.4033 86.9514 52.6734 87.3214 52.9018 87.5474C53.1926 87.8351 53.6288 88.0406 54.1688 88.0406C54.7296 88.0406 55.145 87.8351 55.4358 87.5474C55.7266 87.2597 55.9343 86.8281 55.9343 86.3555C55.9343 85.8622 55.7266 85.4512 55.4358 85.1635C55.0827 84.8347 54.605 84.6703 54.1688 84.6703C53.7119 84.6908 53.2342 84.8552 52.9018 85.184Z" fill="#43532C"/>
<path d="M66.652 83.2728L68.1474 87.0542L69.6637 83.2728H71.4291L68.7705 89.4792H67.5036L64.8657 83.2728H66.652Z" fill="#43532C"/>
<path d="M76.0815 83.2728V89.4792H74.4614V83.2728H76.0815Z" fill="#43532C"/>
<path d="M81.3571 83.2728V88.1023H83.3096V89.4586H79.7371V83.2522H81.3571V83.2728Z" fill="#43532C"/>
<path d="M88.1284 83.2728V88.1023H90.0808V89.4586H86.5083V83.2522H88.1284V83.2728Z" fill="#43532C"/>
<path d="M97.0803 88.4311H94.8163L94.4009 89.4792H92.677L95.0864 83.2728H96.8518L99.1989 89.4792H97.4542L97.0803 88.4311ZM96.6441 87.198L95.9379 85.184L95.2525 87.198H96.6441Z" fill="#43532C"/>
<path d="M105.098 85.9445H108.338C108.338 87.1775 108.089 88.0407 107.341 88.7394C106.676 89.3354 105.928 89.5203 105.139 89.5203C104.018 89.5203 103.249 89.1093 102.73 88.5955C102.252 88.1229 101.837 87.383 101.837 86.3555C101.837 85.369 102.231 84.5675 102.771 84.0332C103.291 83.5194 104.101 83.129 105.201 83.129C105.783 83.129 106.406 83.2523 106.884 83.54C107.382 83.8277 107.777 84.3209 108.005 84.8141L106.448 85.4512C106.344 85.1635 106.157 84.958 105.991 84.8347C105.721 84.6086 105.43 84.5264 105.118 84.5264C104.724 84.5264 104.329 84.6703 104.038 84.958C103.664 85.3279 103.498 85.9033 103.498 86.376C103.498 86.9514 103.706 87.4036 103.997 87.7118C104.288 88.0201 104.661 88.1845 105.139 88.1845C105.43 88.1845 105.742 88.1434 106.032 87.8968C106.178 87.7735 106.365 87.5474 106.427 87.2186H105.098V85.9445Z" fill="#43532C"/>
<path d="M115.254 84.6292H113.323V85.6567H115.151V87.0131H113.323V88.0818H115.254V89.4381H111.703V83.2317H115.254V84.6292Z" fill="#43532C"/>
<defs>
<linearGradient id="paint0_linear" x1="55.6384" y1="36.4735" x2="94.6116" y2="36.4735" gradientUnits="userSpaceOnUse">
<stop stop-color="#94CBCE"/>
<stop offset="1" stop-color="#58A6AA"/>
</linearGradient>
<linearGradient id="paint1_linear" x1="53.9441" y1="15.4257" x2="97.4868" y2="15.4257" gradientUnits="userSpaceOnUse">
<stop stop-color="#A7C84B"/>
<stop offset="1" stop-color="#73873F"/>
</linearGradient>
</defs>
</svg>
