<svg width="607" height="805" viewBox="0 0 607 805" fill="none" xmlns="http://www.w3.org/2000/svg">
<path d="M276.2 379.2C274 376.7 271.2 375.5 268.1 375.5C264.8 375.5 262.2 376.6 260.1 378.7C258.1 380.8 257 383.9 257 387.9C257 392.2 258.1 395.7 260.4 398.4C262.7 401.1 265.6 402.4 269.1 402.4C269.9 402.4 270.7 402.3 271.5 402.1C272.3 401.9 273.2 401.5 274.2 401C275.2 400.4 276.1 399.7 276.8 398.8C277.6 397.9 278.2 396.6 278.7 395C279.2 393.4 279.5 391.5 279.5 389.4C279.6 385.1 278.5 381.7 276.2 379.2Z" fill="white"/>
<path d="M335.3 335.2L332 345.4C331.9 345.6 332 345.7 332.1 345.7H339.3C339.5 345.7 339.5 345.6 339.5 345.4L335.9 335.2C335.7 334.6 335.5 334.6 335.3 335.2Z" fill="white"/>
<path d="M230.9 330.3C227.6 330.3 225 331.4 222.9 333.5C220.9 335.6 219.8 338.7 219.8 342.7C219.8 347 220.9 350.5 223.2 353.2C225.5 355.9 228.4 357.2 231.9 357.2C232.7 357.2 233.5 357.1 234.3 356.9C235.1 356.7 236 356.3 237 355.8C238 355.2 238.9 354.5 239.6 353.6C240.4 352.7 241 351.4 241.5 349.8C242 348.2 242.3 346.3 242.3 344.2C242.3 339.9 241.2 336.4 238.9 334C236.8 331.6 234.1 330.3 230.9 330.3Z" fill="white"/>
<path d="M259.6 232.8C251 224.9 239.4 223.2 228.8 224.6C219.9 226.3 211.1 228.9 202.4 232C202.4 252.4 202.4 272.7 202.4 293.1C202.2 296.9 205 300.2 208.3 300C217.4 300.1 226.6 300 235.7 300C245 299.7 254.8 297.2 261.7 289.7C268.2 282.8 270.9 272.2 270.8 262.2C270.9 251.1 267.2 239.7 259.6 232.8Z" fill="white"/>
<path d="M247.6 152.7C238 149.8 227.9 150.8 218.1 150.6C214.3 150.7 210.6 150.3 206.8 150.8C204.1 151.3 202.3 154.3 202.4 157.3C202.3 177.6 202.4 197.9 202.4 218.2C218.6 213.3 235.2 210.5 251.9 208.9C254.4 208.8 256.3 206.8 258.2 205.2C263.3 200.5 266 193.1 266.4 185.7C266.9 178 266.1 169.7 262.2 163.2C258.8 157.6 253.2 154.3 247.6 152.7Z" fill="white"/>
<path d="M487.7 131.9C487.7 131.9 459.5 109.8 399.2 95.6996C319.5 77.0996 260.9 81.2996 199.4 95.6996C139.1 109.8 110.9 131.9 110.9 131.9C110.9 131.9 90.1 266.7 179.3 396.8C196.5 421.9 216 442.6 234.2 458.9C240.1 463.9 248.1 465.4 255.4 463.9C258.2 463.3 260.9 462.2 263.4 460.7C265 459.7 266.5 458.5 267.9 457C268.3 456.6 268.6 456.2 269 455.8C269.9 454.7 270.6 453.6 271.2 452.4C274.7 445.5 273.2 436.8 267 431.6C262.2 427.5 254.9 428.1 250.9 432.9C250.5 433.3 250.2 433.8 250 434.3C248.5 437.2 249.2 440.9 251.8 443.1C253.4 444.6 256.2 444.3 257.6 442.6L265 448.9C264 450.1 262.8 451 261.5 451.8C259.7 452.9 257.7 453.5 255.5 453.7C255.3 453.7 255.2 453.7 255 453.7C251.5 453.9 248.1 452.7 245.4 450.4C242.2 447.6 240.2 443.9 239.6 440C239.2 437.6 239.4 435.1 240.1 432.7C240.6 430.8 241.5 429 242.8 427.4C243 427.1 243.2 426.8 243.5 426.5C251.1 417.6 264.5 416.5 273.4 424C284.8 434.4 285.2 447.8 279 458.1C278 459.7 276.9 461.3 275.7 462.7C274.5 464.1 273.1 465.5 271.6 466.7C269.6 468.4 267.3 469.8 264.8 471C261.1 472.7 257 473.9 252.6 474.1C276 492.4 294.7 502.2 299.5 503.2C304.3 502.2 323 492.4 346.4 474.1C342 473.8 337.9 472.7 334.2 471C331.7 469.8 329.5 468.4 327.4 466.7C325.9 465.5 324.5 464.1 323.3 462.7C322.1 461.3 320.9 459.7 320 458.1C313.9 447.8 314.3 434.4 325.7 424C334.6 416.4 348 417.5 355.6 426.5C355.8 426.8 356 427.1 356.3 427.4C357.5 429 358.4 430.8 359 432.7C359.7 435.1 359.9 437.6 359.5 440C358.9 443.9 357 447.7 353.7 450.4C351 452.7 347.6 453.8 344.1 453.7C343.9 453.7 343.8 453.7 343.6 453.7C341.4 453.5 339.4 452.8 337.6 451.8C336.3 451 335.2 450.1 334.2 448.9L341.6 442.6C343 444.3 345.7 444.5 347.4 443.1C350 440.9 350.6 437.2 349.1 434.3C348.9 433.8 348.6 433.4 348.2 432.9C344.1 428.1 336.9 427.5 332.1 431.6C325.9 436.8 324.4 445.5 327.9 452.4C328.5 453.6 329.2 454.7 330.1 455.8C330.4 456.2 330.8 456.6 331.2 457C332.5 458.4 334 459.6 335.7 460.7C338.1 462.2 340.8 463.3 343.7 463.9C350.7 465.4 358.4 464 364.3 459.5C382.7 443.1 402.4 422.2 419.8 396.8C508.5 266.7 487.7 131.9 487.7 131.9ZM364.7 348.9C365.6 350.8 366.5 352.2 367.4 353.1C370.2 355.8 373.5 357.1 377.3 357.1C379.3 357.1 380.7 356.8 381.6 356.3C382.1 356 382.4 355.6 382.4 355V348.6C382.4 347.1 382.3 346.1 382.1 345.6C381.9 345.2 381.4 344.9 380.7 344.7C380.4 344.6 380 344.6 379.4 344.6C379.2 344.6 379.1 344.5 379.1 344.4C379.1 344.2 379.3 344.1 379.7 344.1C380.2 344.1 380.8 344.1 381.5 344.1C382.2 344.1 382.8 344.1 383.2 344.2C383.7 344.2 383.9 344.2 384 344.2C384 344.2 384.3 344.2 384.7 344.2C385.2 344.2 385.7 344.2 386.3 344.1C386.9 344.1 387.4 344.1 387.7 344.1C388.1 344.1 388.3 344.2 388.3 344.4C388.3 344.6 388.2 344.6 388 344.6C387.8 344.6 387.5 344.6 387.1 344.7C386.6 344.8 386.2 345 386.1 345.3C385.9 345.6 385.8 346.1 385.7 346.8C385.6 347.6 385.6 348.9 385.6 350.7V354.9C385.6 355.7 385.6 356.2 385.5 356.5C385.4 356.7 385.3 356.9 385.1 357C383 358.1 380.3 358.7 377.1 358.7C371.9 358.7 367.7 357.4 364.6 354.6C363.3 353.5 362.3 352 361.4 350.1C360.5 348.2 360.1 346.1 360.1 343.9C360.1 341 360.7 338.6 361.9 336.4C363.1 334.3 364.6 332.6 366.4 331.4C368.9 329.8 372.3 329 376.5 329C378.3 329 380.2 329.2 382.3 329.6C383.2 329.8 384.2 329.9 385.4 330C385.7 330 385.9 330.1 385.9 330.3C385.9 330.4 385.9 330.6 385.8 331C385.8 331.4 385.7 332 385.7 332.8C385.6 333.6 385.6 334.6 385.6 335.7C385.6 336.2 385.5 336.5 385.3 336.5C385.2 336.5 385.1 336.3 385 335.9C384.9 335 384.7 334.1 384.2 333.4C383.7 332.6 382.6 331.9 381.1 331.3C379.5 330.7 377.6 330.4 375.3 330.4C372 330.4 369.3 331.2 367.2 332.9C366.1 333.8 365.2 335.1 364.5 336.8C363.8 338.5 363.5 340.4 363.5 342.5C363.4 344.9 363.9 347 364.7 348.9ZM405.8 358.1C405.5 358.1 405.1 358.1 404.5 358.2C403.9 358.3 403.4 358.3 403 358.2C402.6 358.2 402.4 358.1 402.4 357.9C402.4 357.8 402.5 357.7 402.8 357.7C403.3 357.6 403.6 357.6 403.7 357.6C404.2 357.5 404.5 357.2 404.7 356.7C404.9 356.2 405 355.3 405.1 354C405.2 352 405.2 349.8 405.2 347.2V340.5C405.2 335.9 405.2 333.1 405.1 332.3C405 331.6 404.9 331.1 404.7 330.8C404.5 330.5 404.1 330.3 403.5 330.1C403.4 330.1 403.3 330.1 403.2 330C403.1 330 402.9 330 402.8 330C402.6 330 402.5 330 402.4 330C402.1 330 401.9 329.9 401.9 329.8C401.9 329.6 402.1 329.5 402.5 329.5C403.8 329.5 405.2 329.5 406.8 329.6C412 329.6 414.9 329.6 415.5 329.6C416.4 329.5 417 329.5 417.2 329.4C417.4 329.3 417.5 329.2 417.6 329.2C417.7 329.2 417.8 329.3 417.8 329.5C417.8 329.6 417.8 329.8 417.7 330.1C417.6 330.5 417.6 330.9 417.5 331.3L417.3 333.6C417.2 334 417.1 334.2 417 334.2C416.8 334.2 416.7 334 416.7 333.7C416.7 333.2 416.6 332.8 416.5 332.5C416.2 331.7 415.3 331.3 413.8 331.1C413.1 331 411.4 331 408.6 331C408.4 331 408.4 331.1 408.4 331.4V341.8C408.4 342.1 408.5 342.2 408.6 342.2C412 342.2 414 342.2 414.6 342.1C415.6 342 416.2 341.8 416.5 341.5C416.7 341.2 416.9 341.1 417 341.1C417.1 341.1 417.2 341.2 417.2 341.4C417.2 341.5 417.2 341.6 417.1 341.7C417.1 341.9 417 342.1 417 342.5C416.9 342.8 416.9 343.2 416.9 343.5C416.8 344 416.8 344.5 416.8 345.1C416.8 345.4 416.8 345.6 416.8 345.8C416.8 346 416.8 346.1 416.8 346.1C416.7 346.5 416.7 346.7 416.5 346.7C416.4 346.7 416.4 346.7 416.4 346.6C416.3 346.5 416.3 346.3 416.3 346.1C416.3 345.7 416.2 345.3 416.1 345C415.9 344.3 415.3 343.9 414.1 343.8C413 343.7 411.2 343.6 408.7 343.6C408.5 343.6 408.4 343.7 408.4 343.9V347.2C408.4 347.4 408.4 348.1 408.4 349.1C408.4 350.2 408.4 351.1 408.4 352C408.4 352.9 408.4 353.4 408.4 353.6C408.4 354.4 408.6 355.1 408.7 355.5C408.9 355.9 409.2 356.2 409.6 356.4C409.9 356.5 410.2 356.6 410.7 356.6C411.2 356.7 411.9 356.7 412.8 356.7C414.3 356.7 415.5 356.6 416.2 356.4C416.8 356.2 417.2 355.9 417.5 355.5C417.8 355.1 418 354.4 418.1 353.6C418.2 353.2 418.3 353 418.4 353C418.5 353 418.6 353.2 418.6 353.6C418.6 353.7 418.6 353.9 418.5 354.2C418.5 354.5 418.4 354.8 418.4 355.3C418.3 356.3 418.2 356.9 418.1 357.3C418 357.8 417.8 358.1 417.6 358.2C417.4 358.3 416.9 358.3 416.3 358.3C416.2 358.3 416.2 358.3 416.1 358.3C415.4 358.3 413.5 358.3 410.6 358.2C410.3 358.2 410.1 358.2 409.9 358.2C407.3 358.1 405.9 358.1 405.8 358.1ZM456.5 255C456.2 255.2 455.9 255.3 455.6 255.4C453.8 256.2 452 256.8 450.1 257.1C446 257.8 441.8 257.4 437.9 256.6C432.5 255.6 427.4 254 422.5 251.9C422.5 263.1 422.5 274.4 422.5 285.6C422.6 291.2 424 297.2 427.9 300.9C430.1 303 432.7 304.2 435.4 304.7C437.4 305.1 439.4 305.2 441.4 305C441.9 305 442.4 304.9 442.8 304.9C442.8 306.9 442.8 309 442.8 311C441.5 311 440.3 311 439 311C436.9 311 434.9 311 432.8 311C416.1 311 399.3 311 382.6 311C381.4 311.2 380.4 310.6 380.3 309.1C388.6 305.5 396.2 298.8 400 289.4C402.2 284.2 402.8 278.4 402.4 272.7C402.4 272.7 401.2 243.8 401.2 244.6C366 226.3 330 222.9 330 222.9C330 244.3 329.9 265.8 330.1 287.2C330.3 292.3 330.7 298.6 335 301.5C339.8 304.4 345.3 304.2 350.6 304.8C350.6 306.9 350.6 308.9 350.6 311C331.7 311 312.8 311 293.9 311C291.5 311 289 311.2 286.6 310.7C286.3 308.5 288.3 308.2 289.6 307.5C299 303.1 305.7 292.8 308 281.5C309.5 275.4 309 269.1 309.1 262.9C309.1 248.8 309.1 234.7 309.1 220.6C293.3 219.4 277.4 219.1 261.6 220.1C272 223.4 282.1 229.8 288.2 240.3C294.4 250.7 295.3 264.4 292 276.3C289.1 287.1 282 295.8 273.5 301.1C261.3 308.7 247.1 311 233.4 311C210.7 311 188.1 311 165.4 311C163.9 311 162.4 311 160.8 311C159.2 311.2 159.4 308.4 160.8 308.4C161.8 308 162.7 307.5 163.7 306.9C169.6 303.5 174.7 298 177.6 291.2C180 285.8 181.2 279.7 181.2 273.6C181.2 262.9 181.1 252.3 181.2 241.6C176.4 244.4 171.8 247.4 167.4 251C164.3 253.5 161.8 257.6 161.8 262.1C161.7 264.4 163 266.3 163.8 268.4C166.6 275.2 164.3 284.1 158.9 288.3C158.4 288.7 157.9 289.1 157.4 289.4C155.7 290.4 153.9 291 152 291.2C149.9 291.4 147.7 291.1 145.7 290.1C145.4 290 145.1 289.8 144.9 289.7C140.6 287.2 137.1 282.4 136.7 276.8C136.5 273 137.3 269.4 138.7 266C139.6 263.8 140.7 261.7 142 259.8C142.2 259.5 142.4 259.1 142.7 258.8C144.1 256.6 145.6 254.6 147.1 252.6C156.4 240.9 168.6 232.5 181.2 226.5C181.2 205.7 181.2 184.8 181.2 164C181 158.7 180.7 151.9 176.1 149C171.4 146.3 165.9 146.4 160.7 145.9C160.7 143.9 160.7 141.8 160.7 139.8C178.4 139.8 196 139.8 213.7 139.8C228.7 139.9 244 138.9 258.8 143C267.7 145.5 276.8 149.8 282.8 158.1C288.9 166.5 290.5 178.2 289.1 188.8C288.1 196.1 284.7 202.7 279.9 207.6C289.6 207.3 299.3 207.5 309 207.9C309 194.7 309 181.4 309 168.2C308.9 163.5 309.1 158.7 308.1 154.2C307.6 151.4 305.8 149 303.5 148.1C299.4 146.4 294.9 146.3 290.6 146C290.6 144 290.6 141.9 290.6 139.9C310.6 139.9 330.5 139.9 350.5 139.9C350.5 141.9 350.5 144 350.5 146C350.3 146 350.1 146 349.9 146.1L350.4 146.2L330.2 161.6C330 164.6 330.1 167.7 330.1 170.7C330.1 177.4 330.1 184.1 330.1 190.8C330.1 192.4 329.8 210 330.1 210.1C332.7 210.3 335.3 210.6 338 210.8C348.1 212.2 368.3 216.2 401.3 227.7C401.2 203.5 401.4 188.2 401.2 164C401.2 163.2 401.1 162.4 401.1 161.5L381 146.2L381.4 146.1C381.2 146.1 381 146.1 380.8 146C380.8 144 380.8 141.9 380.8 139.9C401.2 139.9 421.5 139.9 441.9 139.9C442.2 139.9 442.4 139.9 442.7 139.9C442.7 140 442.7 140.1 442.7 140.2C442.7 142.1 442.7 144.1 442.7 146C438 146.5 433.1 146.5 428.7 148.4C426.1 149.5 424.1 152 423.4 155C421.9 161.2 422.4 167.6 422.3 173.9C422.3 195 422.4 216 422.5 237.1C425.7 238.4 429.5 238.8 433.1 237.4C435.3 236.6 436.6 234.8 438.2 233.3C442.8 229 450.1 227.6 455.8 229.5C456.8 229.8 457.7 230.2 458.6 230.8C459.5 231.3 460.4 232 461.1 232.7C463.8 235.2 465.3 238.8 465 242.5C465 242.8 464.9 243.1 464.9 243.5C464.8 244.2 464.6 244.8 464.4 245.5C463.2 249.1 460.5 252.9 456.5 255ZM305.6 355.4C305.7 356 305.8 356.5 306 356.9C306.2 357.2 306.5 357.4 307.1 357.5C307.8 357.6 308.4 357.7 308.8 357.7C309 357.7 309.1 357.8 309.1 357.9C309.1 358.1 308.9 358.2 308.5 358.2C307.9 358.2 307.2 358.2 306.5 358.2C305.8 358.2 305.1 358.2 304.6 358.1C304.1 358.1 303.8 358.1 303.8 358.1C303.8 358.1 303.5 358.1 303.1 358.1C302.6 358.1 302.1 358.1 301.5 358.2C300.9 358.2 300.4 358.2 300.1 358.2C299.7 358.2 299.5 358.1 299.5 357.9C299.5 357.7 299.6 357.7 299.8 357.7C300.1 357.7 300.5 357.6 300.9 357.5C301.5 357.4 301.8 356.7 302 355.4C302.1 354.3 302.2 351.6 302.2 347.2V331.2C301.6 331.2 300.7 331.2 299.4 331.2C298.1 331.2 297.2 331.2 296.6 331.2C295.4 331.2 294.5 331.3 294 331.5C293.5 331.7 293 332 292.7 332.4C292.4 332.8 292.2 333.2 292.1 333.6C292 333.9 291.9 334 291.7 334C291.6 334 291.5 333.9 291.5 333.7C291.5 333.3 291.8 332 292.3 329.8C292.5 329.3 292.6 329.1 292.7 329.1C292.7 329.1 292.9 329.2 293.3 329.3C293.6 329.4 294 329.5 294.4 329.5C295.6 329.6 296.6 329.7 297.4 329.7H311.6C312.7 329.7 313.6 329.6 314.3 329.5C314.5 329.5 314.6 329.4 314.8 329.4C315 329.4 315.1 329.3 315.2 329.3C315.3 329.3 315.4 329.3 315.4 329.3C315.5 329.3 315.6 329.5 315.6 329.8C315.6 330.2 315.6 331 315.5 332.1C315.5 333.2 315.4 333.8 315.4 333.9C315.4 334.2 315.3 334.4 315.1 334.4C314.9 334.4 314.8 334.2 314.8 333.8C314.8 333.7 314.8 333.7 314.8 333.6C314.8 333.5 314.8 333.4 314.8 333.4C314.7 332.1 313.1 331.4 310.1 331.3C309.6 331.3 308.8 331.3 307.7 331.3C306.6 331.3 305.8 331.3 305.3 331.3V347.3C305.4 351.6 305.5 354.4 305.6 355.4ZM270.9 355.4C271 356 271.1 356.5 271.3 356.9C271.5 357.2 271.8 357.4 272.4 357.5C273.1 357.6 273.7 357.7 274.1 357.7C274.3 357.7 274.4 357.8 274.4 357.9C274.4 358.1 274.2 358.2 273.8 358.2C273.2 358.2 272.5 358.2 271.8 358.2C271.1 358.2 270.4 358.2 269.9 358.1C269.4 358.1 269.1 358.1 269.1 358.1C269.1 358.1 268.8 358.1 268.4 358.1C267.9 358.1 267.4 358.1 266.8 358.2C266.2 358.2 265.7 358.2 265.4 358.2C265 358.2 264.8 358.1 264.8 357.9C264.8 357.7 264.9 357.7 265.1 357.7C265.4 357.7 265.8 357.6 266.2 357.5C266.8 357.4 267.1 356.7 267.3 355.4C267.4 354.3 267.5 351.6 267.5 347.2V331.2C266.9 331.2 266 331.2 264.7 331.2C263.4 331.2 262.5 331.2 261.9 331.2C260.7 331.2 259.8 331.3 259.3 331.5C258.8 331.7 258.3 332 258 332.4C257.7 332.8 257.5 333.2 257.4 333.6C257.3 333.9 257.2 334 257 334C256.9 334 256.8 333.9 256.8 333.7C256.8 333.3 257.1 332 257.6 329.8C257.8 329.3 257.9 329.1 258 329.1C258 329.1 258.2 329.2 258.6 329.3C258.9 329.4 259.3 329.5 259.7 329.5C260.9 329.6 261.9 329.7 262.7 329.7H276.9C278 329.7 278.9 329.6 279.6 329.5C279.8 329.5 279.9 329.4 280.1 329.4C280.3 329.4 280.4 329.3 280.5 329.3C280.6 329.3 280.7 329.3 280.7 329.3C280.8 329.3 280.9 329.5 280.9 329.8C280.9 330.2 280.9 331 280.8 332.1C280.8 333.2 280.7 333.8 280.7 333.9C280.7 334.2 280.6 334.4 280.4 334.4C280.2 334.4 280.1 334.2 280.1 333.8C280.1 333.7 280.1 333.7 280.1 333.6C280.1 333.5 280.1 333.4 280.1 333.4C280 332.1 278.4 331.4 275.4 331.3C274.9 331.3 274.1 331.3 273 331.3C271.9 331.3 271.1 331.3 270.6 331.3V347.3C270.7 351.6 270.8 354.4 270.9 355.4ZM232.5 400.5C232.6 401.1 232.7 401.6 232.9 402C233.1 402.3 233.4 402.5 234 402.6C234.7 402.7 235.3 402.8 235.7 402.8C235.9 402.8 236 402.9 236 403C236 403.2 235.8 403.3 235.4 403.3C234.8 403.3 234.1 403.3 233.4 403.3C232.7 403.3 232 403.3 231.5 403.2C231 403.2 230.7 403.2 230.7 403.2C230.7 403.2 230.4 403.2 230 403.2C229.5 403.2 229 403.2 228.4 403.3C227.8 403.3 227.3 403.3 227 403.3C226.6 403.3 226.4 403.2 226.4 403C226.4 402.8 226.5 402.8 226.7 402.8C227 402.8 227.4 402.7 227.8 402.6C228.4 402.5 228.7 401.8 228.9 400.5C229 399.4 229.1 396.7 229.1 392.3V376.3C228.5 376.3 227.6 376.3 226.3 376.3C225 376.3 224.1 376.3 223.5 376.3C222.3 376.3 221.4 376.4 220.9 376.6C220.4 376.8 219.9 377.1 219.6 377.5C219.3 377.9 219.1 378.3 219 378.7C218.9 379 218.8 379.1 218.6 379.1C218.5 379.1 218.4 379 218.4 378.8C218.4 378.4 218.7 377.1 219.2 374.9C219.4 374.4 219.5 374.2 219.6 374.2C219.6 374.2 219.8 374.3 220.2 374.4C220.5 374.5 220.9 374.6 221.3 374.6C222.5 374.7 223.5 374.8 224.3 374.8H238.5C239.6 374.8 240.5 374.7 241.2 374.6C241.4 374.6 241.5 374.5 241.7 374.5C241.9 374.5 242 374.4 242.1 374.4C242.2 374.4 242.3 374.4 242.3 374.4C242.4 374.4 242.5 374.6 242.5 374.9C242.5 375.3 242.5 376.1 242.4 377.2C242.4 378.3 242.3 378.9 242.3 379C242.3 379.3 242.2 379.5 242 379.5C241.8 379.5 241.7 379.3 241.7 378.9C241.7 378.8 241.7 378.8 241.7 378.7C241.7 378.6 241.7 378.5 241.7 378.5C241.6 377.2 240 376.5 237 376.4C236.5 376.4 235.7 376.4 234.6 376.4C233.5 376.4 232.7 376.4 232.2 376.4V392.4C232.3 396.7 232.4 399.5 232.5 400.5ZM203.2 354.1C203 355.3 202.8 356.2 202.7 356.8C202.6 357.2 202.5 357.4 202.4 357.5C202.3 357.6 202.1 357.7 201.7 357.9C200.3 358.5 198 358.8 194.9 358.8C192.6 358.8 190.5 358.5 188.7 358C186.3 357.3 184.2 356.2 182.4 354.7C179.3 351.9 177.8 348.2 177.8 343.5C177.8 342.2 178 340.8 178.5 339.3C178.6 339 178.7 338.6 178.8 338.3C179.5 336.4 180.5 334.7 182.1 333.2C184.8 330.5 188.6 329.1 193.6 329.1C195.6 329.1 197.4 329.3 199.1 329.6C199.5 329.7 200.8 329.9 203.1 330.2C203.3 330.2 203.4 330.4 203.4 330.6C203.4 330.7 203.4 330.8 203.4 331C203.4 331.2 203.3 331.4 203.3 331.7C203.3 332 203.2 332.4 203.2 332.7C203.2 333.2 203.1 333.9 203.1 334.9C203.1 335.9 203.1 336.5 203.1 336.6C203.1 337.1 203 337.4 202.8 337.4C202.6 337.4 202.5 337.1 202.5 336.6C202.5 334.9 202 333.6 200.9 332.7C200.2 332.1 199.2 331.6 197.8 331.2C196.4 330.8 194.9 330.6 193.4 330.6C189.5 330.6 186.6 331.5 184.7 333.4C183.4 334.6 182.5 336.1 182 337.7C181.5 339.3 181.3 341.2 181.3 343.3C181.3 343.8 181.3 344.3 181.4 344.8C181.7 347.9 183 350.6 185.2 353C185.6 353.5 186.1 353.9 186.6 354.3C188.9 356.2 191.7 357.2 195 357.2C198.2 357.2 200.3 356.6 201.6 355.3C202.3 354.6 202.8 353.5 203 352.1C203.1 351.7 203.2 351.5 203.4 351.5C203.6 351.5 203.7 351.7 203.7 352.1C203.4 352.1 203.3 352.8 203.2 354.1ZM241.9 354.2C239.1 357.2 235.5 358.7 231 358.7C229 358.7 227.2 358.4 225.5 357.8C223.8 357.2 222.4 356.4 221.3 355.4C220.2 354.4 219.2 353.3 218.5 352C217.7 350.7 217.2 349.3 216.8 348C216.5 346.6 216.3 345.2 216.3 343.8C216.3 342.2 216.6 340.5 217.2 338.9C217.8 337.2 218.7 335.7 219.8 334.1C220.9 332.6 222.5 331.4 224.5 330.4C226.5 329.4 228.7 329 231.2 329C235.5 329 239.1 330.3 241.9 332.8C244.7 335.4 246.1 338.8 246.1 343.2C246.1 347.6 244.7 351.2 241.9 354.2ZM279 399.3C276.2 402.3 272.6 403.8 268.1 403.8C266.1 403.8 264.3 403.5 262.6 402.9C260.9 402.3 259.5 401.5 258.4 400.5C257.3 399.5 256.3 398.4 255.6 397.1C254.8 395.8 254.3 394.4 253.9 393.1C253.6 391.7 253.4 390.3 253.4 388.9C253.4 387.3 253.7 385.6 254.3 384C254.9 382.3 255.8 380.8 256.9 379.2C258 377.7 259.6 376.5 261.6 375.5C263.6 374.5 265.8 374.1 268.3 374.1C272.6 374.1 276.2 375.4 279 377.9C281.8 380.5 283.2 383.9 283.2 388.3C283.2 392.7 281.8 396.4 279 399.3ZM335.6 375.2C335.1 375.2 334.7 375.3 334.3 375.4C333.8 375.6 333.4 376 333 376.6C332.6 377.2 332.3 378.2 331.8 379.5C331.2 381.1 330.1 384.7 328.3 390.2C326.5 395.7 325.4 399.2 324.9 400.6C324.4 402 324.1 402.9 323.9 403.3C323.7 403.7 323.5 403.8 323.3 403.8C323.1 403.8 323 403.7 322.8 403.4C322.6 403.1 322.4 402.6 322.2 401.8L314.7 380.6C310.5 391.9 307.8 399 306.8 401.7C306.3 403 305.9 403.7 305.6 403.7C305.4 403.7 305.2 403.5 305.1 403.2C304.9 402.8 304.7 402 304.3 400.7L297.6 378.3C297.3 377.3 297 376.6 296.7 376.2C296.4 375.8 296 375.5 295.5 375.3C295.1 375.1 294.5 375.1 293.8 375.1C293.6 375.1 293.5 375 293.5 374.8C293.5 374.6 293.7 374.5 294.1 374.5C294.9 374.5 295.8 374.5 296.9 374.5L298.5 374.6C298.6 374.6 298.8 374.6 299.2 374.6C299.6 374.6 300.1 374.6 300.7 374.5C301.3 374.4 301.9 374.5 302.4 374.5C302.9 374.5 303.1 374.6 303.1 374.8C303.1 375 303 375.1 302.7 375.1C302 375.1 301.5 375.2 301.2 375.3C300.9 375.5 300.7 375.8 300.7 376.2C300.7 376.4 300.9 377.6 301.4 379.7C301.9 381.7 303.6 387.9 306.5 398.1L314.6 376.4C315 375.2 315.3 374.7 315.5 374.7C315.7 374.7 316 375.3 316.4 376.5L324 398.2C324.1 397.8 325 395 326.6 389.6C328.3 384.2 329.3 380.6 329.9 378.7C330.2 377.7 330.3 376.9 330.3 376.3C330.3 375.5 329.6 375.2 328.1 375.2C327.9 375.2 327.8 375.1 327.8 374.9C327.8 374.7 328 374.6 328.4 374.6C329 374.6 329.5 374.6 330.1 374.6C330.7 374.6 331.2 374.6 331.6 374.7C332 374.7 332.2 374.7 332.3 374.7L333.5 374.6C334.3 374.6 334.9 374.6 335.4 374.6C335.8 374.6 335.9 374.7 335.9 374.8C335.9 375.1 335.8 375.2 335.6 375.2ZM343.1 357.8C343.1 357.7 343.2 357.6 343.4 357.5C343.8 357.4 343.8 357 343.6 356.5L340.1 347.2C340 347 339.9 347 339.8 347H331.7C331.5 347 331.4 347.1 331.3 347.3L329 354C328.6 355 328.5 355.8 328.5 356.5C328.5 356.9 328.6 357.1 328.9 357.3C329.2 357.5 329.5 357.6 329.8 357.6H330.1C330.4 357.6 330.6 357.7 330.6 357.8C330.6 358 330.4 358.1 329.9 358.1C329.5 358.1 329 358.1 328.3 358C327.6 358 327.2 357.9 327.1 357.9C327.1 357.9 326.5 357.9 325.5 358C324.4 358 323.6 358.1 322.8 358.1C322.3 358.1 322.1 358 322.1 357.8C322.1 357.6 322.3 357.6 322.6 357.6C322.8 357.6 323.1 357.6 323.5 357.5C324.3 357.4 324.9 357.1 325.4 356.5C325.9 355.9 326.3 355.1 326.7 354L335.3 330.5C335.7 329.5 335.9 329 336.1 329C336.3 329 336.6 329.5 336.9 330.4C337 330.7 337.6 332.3 338.8 335.4C340 338.5 341.2 341.8 342.6 345.4C344 349 345 351.6 345.7 353.3C346.7 355.8 347.8 357.2 349 357.5C349.5 357.7 349.9 357.7 350.5 357.7C350.8 357.7 350.9 357.8 350.9 357.9C350.9 358.1 350.6 358.2 350.1 358.2C347.9 358.2 345.9 358.2 344.2 358.1C343.5 358.1 343.1 358 343.1 357.8ZM350.7 380L351.2 398.1C351.2 399.6 351.3 400.7 351.6 401.3C351.8 401.9 352.2 402.3 352.7 402.5C353.3 402.7 353.9 402.7 354.6 402.7C354.8 402.7 354.9 402.8 354.9 402.9C354.9 403.1 354.7 403.2 354.2 403.2C353.6 403.2 352.9 403.2 352.3 403.2C351.7 403.2 351.2 403.2 350.8 403.1C350.4 403.1 350.2 403.1 350.2 403.1L348.9 403.2C348 403.2 347.2 403.2 346.6 403.2C346.2 403.2 346 403.1 346 402.9C346 402.7 346.1 402.7 346.3 402.7C346.9 402.7 347.4 402.6 347.9 402.5C348.4 402.4 348.7 402 348.8 401.3C349 400.6 349 399.4 349 397.7V392.1C349 388.3 349 385.4 349 383.5C349 381.6 349 380.5 349 380.4C349 380.3 349 378.8 349 376C349 374.7 349.1 374.1 349.4 374.1C349.5 374.1 349.6 374.2 349.8 374.3C349.9 374.4 350.1 374.6 350.3 374.9C350.5 375.2 350.7 375.3 350.7 375.4C351.6 376.5 355.6 380.8 362.7 388.4C364 389.8 365.8 391.7 367.9 394.1C370.1 396.5 371.4 397.9 371.7 398.3L371.3 379.1C371.3 377.8 371.2 377 371 376.5C370.8 376 370.4 375.7 369.8 375.5C369.2 375.4 368.7 375.3 368.2 375.3C367.8 375.3 367.7 375.2 367.7 375C367.7 374.8 368 374.7 368.5 374.7C369.2 374.7 370 374.7 371 374.8C372 374.9 372.5 374.9 372.5 374.9C372.6 374.9 372.9 374.9 373.7 374.8C374.4 374.8 375.1 374.7 375.7 374.7C376.2 374.7 376.4 374.8 376.4 375C376.4 375.1 376.3 375.2 376 375.3C375.8 375.3 375.5 375.4 375 375.5C374.5 375.6 374.1 375.9 373.9 376.3C373.7 376.7 373.6 377.6 373.6 378.9L373.5 401C373.5 401.6 373.5 402.1 373.5 402.5C373.5 402.9 373.5 403.1 373.4 403.3C373.4 403.5 373.3 403.6 373.3 403.6C373.3 403.7 373.2 403.7 373.1 403.7C372.9 403.7 372 402.9 370.3 401.3C370.1 401.1 369.6 400.5 368.5 399.5C367.5 398.5 366.2 397.1 364.6 395.5C363 393.9 361.6 392.4 360.4 391.1C357 387.1 353.7 383.5 350.7 380Z" fill="white"/>
<path d="M523 84.6998C519.6 78.5998 511.6 75.7998 505.2 78.5998C502.5 79.7998 500.4 81.8998 499.5 84.5998C498.6 87.2998 498.8 90.1998 500.3 92.8998C501.7 95.3998 504.1 96.4998 506.8 96.5998C508 96.5998 509 95.8998 509.4 94.7998C509.9 93.3998 509.1 91.7998 507.7 91.2998C506.3 90.7998 504.7 91.5998 504.2 92.9998C504.1 93.1998 504.1 93.3998 504.1 93.6998C503.7 93.2998 503.4 92.7998 503.1 92.2998C502 90.0998 501.4 83.6998 507 82.1998C511 81.1998 515.7 82.6998 517.9 87.4998C519 89.7998 519.4 92.1998 518.6 94.4998C517.8 96.7998 516.1 98.5998 513.7 99.5998C507.1 102.4 499.1 99.9998 491.6 92.8998C483.1 84.7998 385.8 8.49982 385.1 7.89982C377.9 2.59982 366.1 -1.30017 355.9 1.99983C347.7 4.69983 341.9 11.2998 338.7 21.6998C334.2 36.0998 342.6 51.3998 357.8 56.6998C370.4 60.9998 383.9 55.1998 387.8 43.6998C391.1 34.1998 385.3 23.4998 374.9 19.9998C366.3 16.9998 357 20.9998 354.4 28.9998C352.1 36.1998 357.1 46.3998 363.4 45.8998C365.1 45.7998 366.6 44.6998 367.2 42.9998C368 40.7998 366.8 38.2998 364.6 37.5998C362.6 36.8998 360.5 37.7998 359.5 39.4998C358 36.7998 357.8 32.4998 359.7 29.1998C362.9 23.6998 367.9 23.5998 373.5 25.4998C380.9 27.9998 384.7 35.3998 382.4 41.8998C379.5 50.3998 369.2 54.6998 359.6 51.3998C347.3 47.1998 340.5 34.8998 344.1 23.5998C346.8 15.0998 351.4 9.69983 357.7 7.59983C365.9 4.89983 375.9 8.39982 381.7 12.6998C386.8 16.4998 480.2 90.1998 487.7 97.2998C489.5 98.9998 491.4 100.5 493.2 101.7C478.7 93.0998 451.1 79.1998 409.9 69.0998L405.5 67.9998C329.9 50.3998 268.2 50.3998 192.6 67.9998C161.4 75.2998 137.6 84.7998 121.2 92.8998C142.4 75.2998 217.6 16.0998 222.1 12.6998C227.9 8.39982 237.9 4.99983 246.1 7.59983C252.4 9.69983 257 14.9998 259.7 23.5998C263.3 34.9998 256.5 47.1998 244.2 51.3998C234.6 54.6998 224.4 50.4998 221.4 41.8998C219.2 35.3998 222.9 27.9998 230.3 25.4998C235.9 23.5998 240.9 23.6998 244.1 29.1998C246 32.4998 245.8 36.7998 244.3 39.4998C243.3 37.7998 241.2 36.8998 239.2 37.5998C237 38.3998 235.8 40.7998 236.6 42.9998C237.2 44.6998 238.7 45.7998 240.4 45.8998C246.8 46.4998 251.8 36.2998 249.4 28.9998C246.8 20.9998 237.5 17.0998 228.9 19.9998C218.5 23.5998 212.8 34.1998 216 43.6998C220 55.1998 233.4 61.0998 246 56.6998C261.2 51.4998 269.6 36.0998 265.1 21.6998C261.8 11.2998 256 4.69983 247.9 1.99983C237.7 -1.30017 225.9 2.59982 218.7 7.89982C217.9 8.49982 120.7 84.7998 112.2 92.8998C104.7 99.8998 96.7 102.4 90.1 99.5998C87.7 98.5998 86 96.7998 85.2 94.4998C84.4 92.1998 84.9 89.8998 85.9 87.4998C88.1 82.6998 92.8 81.1998 96.8 82.1998C102.5 83.6998 101.8 90.0998 100.7 92.2998C100.4 92.8998 100.1 93.2998 99.7 93.6998C99.7 93.4998 99.6 93.1998 99.6 92.9998C99.1 91.5998 97.6 90.7998 96.1 91.2998C94.7 91.7998 93.9 93.2998 94.4 94.7998C94.8 95.9998 95.9 96.6998 97 96.5998C99.7 96.4998 102.1 95.3998 103.5 92.8998C104.9 90.2998 105.2 87.3998 104.3 84.5998C103.4 81.8998 101.3 79.6998 98.6 78.5998C92.2 75.7998 84.2 78.5998 80.8 84.6998C78.8 88.3998 78.4 92.4998 79.7 96.2998C81 100.1 83.9 103.1 87.7 104.8C90.7 106.1 93.8 106.6 97 106.3C94.4 108.1 93 109.2 92.7 109.4L83.8 116.4L82.1 127.6C81.2 133.6 60.7 275.2 155.2 413.1C182.5 452.9 213.9 481.1 235.4 497.9C261.8 518.4 283.5 529.6 293.2 531.5L298.9 532.6L304.6 531.5C314.3 529.5 336 518.4 362.4 497.9C384 481.2 415.4 452.9 442.6 413.1C537.1 275.2 516.6 133.6 515.7 127.6L514 116.4L505.1 109.4C504.7 109.1 501.5 106.6 495.5 102.9C502.4 106.7 509.5 107.5 515.8 104.8C519.7 103.2 522.5 100.1 523.8 96.2998C525.4 92.4998 525 88.3998 523 84.6998ZM371.1 466.1C371 466.2 370.8 466.3 370.7 466.4C338.7 495 309.7 511.2 301.2 513L299.3 513.4L297.4 513C283.8 510.3 217.8 470.4 171.2 402.4C80.9 270.6 100.3 136.1 101.2 130.5L101.8 126.6L104.9 124.2C106.1 123.2 135.5 100.6 197.3 86.0998C269.9 69.1998 329 69.1998 401.6 86.0998C463.4 100.5 492.7 123.2 494 124.2L497.1 126.6L497.7 130.5C498.6 136.2 518 270.7 427.7 402.4C410.1 427.6 390.1 449 371.1 466.1Z" fill="white"/>
<path d="M513 95.2996C513.3 95.1996 513.2 95.1996 513 95.2996Z" fill="white"/>
<path d="M91.2 95.2996C90.9 95.1996 90.9 95.1996 91.2 95.2996Z" fill="white"/>
<path d="M55.2 617.3V616.9C63.5 615.6 71.6 606.8 71.6 596C71.6 579 60.8 571.1 39.4 571.1H0.0999756V571.4C4.69998 574.5 8.49998 581.5 8.49998 593.2V647.9C8.49998 660.7 3.69998 667.1 0.0999756 669.8V670.1H43.4C62.8 670.1 76.7 659.4 76.7 640.9C76.8 629.3 67.1 618.8 55.2 617.3ZM28 585H38.3C46.7 585 51.6 588.8 51.6 597C51.6 606.1 46.6 610.7 38.3 610.7H28V585ZM40.6 656.1H28V624.5H40.5C51.2 624.5 56.3 630.8 56.3 640.2C56.4 649.6 51.3 656.1 40.6 656.1Z" fill="white"/>
<path d="M88.1 669.8V670.1H138.4C146.8 670.1 150.5 670.4 155.8 671.2L159.8 642.8L159.5 642.7C153.4 651.4 143.4 656.1 130.9 656.1H115.4V624H128.5C136.5 624 141.6 626.6 144 633H144.3L148.4 609.1C142 610 138 610.1 126.2 610.1H115.4V585H134.2C145.3 585 153.2 588.6 156.6 595.5L156.9 595.4L154.5 569.9C151.4 570.6 145.1 571 139.4 571H88.2V571.3C91.9 573.7 95.9 580.6 95.9 592.4V648.7C95.8 660.4 91.6 667.4 88.1 669.8Z" fill="white"/>
<path d="M235.2 571.3C237.5 574 237.8 579.6 235.9 585.3L223.9 621.1C221.6 627.8 218.3 639.9 216.5 650.5H215.9C214.5 640.1 210.8 628 208.5 621.3L196 585C194.1 579.6 195.1 574 197.4 571.3V571H164V571.3C169.8 575.6 174.4 583.3 177 590.4L198.5 650.1C202.1 659.9 199.9 667.1 197.2 669.8V670.1H233.5V669.8C230.8 667.1 228.8 660.1 232.2 650.1L253.6 589.1C256.5 580.8 260.6 574.3 265.6 571.3V571H235.1V571.3H235.2Z" fill="white"/>
<path d="M315.4 656.1H299.9V624H313C321 624 326.1 626.6 328.5 633H328.8L332.9 609.1C326.5 610 322.5 610.1 310.7 610.1H299.9V585H318.7C329.8 585 337.7 588.6 341.1 595.5L341.4 595.4L339 569.9C335.9 570.6 329.6 571 323.9 571H272.7V571.3C276.4 573.7 280.4 580.6 280.4 592.4V648.7C280.4 660.4 276.3 667.4 272.7 669.8V670.1H323C331.4 670.1 335.1 670.4 340.4 671.2L344.4 642.8L344.1 642.7C337.9 651.4 327.9 656.1 315.4 656.1Z" fill="white"/>
<path d="M428.5 650.8L415.2 629.3C427.2 625.4 434.6 616.2 434.6 601.1C434.6 582.6 421.3 571 398.5 571H358V571.3C361.7 573.7 365.7 580.6 365.7 591.8V648.7C365.7 660.4 361.7 667.4 358 669.8V670.1H392.3V669.8C389.2 667.4 385.2 660.5 385.2 649.3V585.2L395.2 585.1C407.5 585 414.3 591.5 414.3 601.9C414.3 614.6 407.5 619.6 395.2 619.6H388.4L410.5 657.4C413.6 662.7 415.9 667.7 417.8 673.2L447 667.9V667.6C440.2 665.2 433.9 659.5 428.5 650.8Z" fill="white"/>
<path d="M518.7 671.2L522.4 643.1L522.1 643C516 651.6 506 655.8 493.6 655.8H479.5V592.4C479.5 580.7 483.6 573.7 487.2 571.3V571H452.3V571.3C456 573.7 460 580.6 460 591.8V648.7C460 660.4 455.9 667.4 452.3 669.8V670.1H502.9C509.5 670.1 513.3 670.2 518.7 671.2Z" fill="white"/>
<path d="M578.4 571V571.3C579.8 575.1 578 581.1 575.3 585.8L564.5 604.8C563.1 607.4 561.4 609.9 559.9 614.1H559.3C557.9 610.1 556.5 607.4 554.9 604.8L543.9 585.8C541.2 581.1 539.3 575.1 540.6 571.3V571H510.2V571.3C513.8 574 518.2 580 521.7 585.8L549.1 631V647.5C549.1 659.6 544.5 667.3 540.4 669.7V670H577.3V669.7C572.6 667.3 568.6 659.7 568.6 647.5V630.3L595.5 585.8C599.2 579.8 603.3 574 606.9 571.3V571H578.4Z" fill="white"/>
<path d="M128.5 696.6C132.2 699.2 136.3 706.5 136.3 719.2V738.1H95.7V719.2C95.7 706.7 100 699.2 103.5 696.6V696.3H66.5V696.6C70.5 699.2 74.7 706.5 74.7 719.2V779.5C74.7 792 70.3 799.5 66.5 802.1V802.4H103.5V802.1C99.8 799.5 95.7 792.2 95.7 779.5V753.4H136.3V780.1C136.3 792 132 799.5 128.5 802.1V802.4H165.5V802.1C161.5 799.5 157.3 792.2 157.3 780.1V719.2C157.3 706.7 161.7 699.2 165.5 696.6V696.3H128.5V696.6Z" fill="white"/>
<path d="M197.2 696.6C201.2 699.2 205.4 706.5 205.4 719.2V779.5C205.4 792 201 799.5 197.2 802.1V802.4H234.8V802.1C230.8 799.5 226.6 792.2 226.6 779.5V719.2C226.6 706.7 231 699.2 234.8 696.6V696.3H197.2V696.6Z" fill="white"/>
<path d="M310.8 787.1H295.7V719.1C295.7 706.6 300.1 699.1 303.9 696.5V696.2H266.5V696.5C270.5 699.1 274.7 706.4 274.7 718.5V779.4C274.7 791.9 270.3 799.4 266.5 802V802.3H320.7C327.7 802.3 331.8 802.5 337.7 803.5L341.7 773.4L341.4 773.2C334.8 782.5 324.1 787.1 310.8 787.1Z" fill="white"/>
<path d="M409.1 787.1H394V719.1C394 706.6 398.4 699.1 402.2 696.5V696.2H364.8V696.5C368.8 699.1 373 706.4 373 718.5V779.4C373 791.9 368.6 799.4 364.8 802V802.3H419C426 802.3 430.1 802.5 436 803.5L440 773.4L439.7 773.2C433.1 782.5 422.4 787.1 409.1 787.1Z" fill="white"/>
<path d="M499.7 738.3C489.8 734.2 481.2 730.7 481.2 721.8C481.2 714 487.2 710 498.8 710C507.7 710 516.4 712.4 522.9 722.5H523.2L521.2 697.5C512.3 695.2 505.2 694.3 497.2 694.3C473.5 694.3 460.6 708.2 460.6 723.3C460.6 744.5 475.4 750.8 488.7 756.3C499.1 760.6 508.4 764.5 508.4 775.1C508.4 783.3 503.1 788.5 490.7 788.8C478.2 789.1 468.3 784.7 459.1 772.8L458.8 773L461.4 798.7C468.3 802.8 479.9 805 492.2 804.8C516.9 804.5 529.5 790.6 529.5 773.7C529.4 750.6 513.2 743.9 499.7 738.3Z" fill="white"/>
</svg>
